<?xml version="1.0" encoding="UTF-8"?>
<svg version="1.1" xmlns="http://www.w3.org/2000/svg" width="4016" height="4016">
<path d="M0 0 C2.48258643 0.8113816 4.96695954 1.6170702 7.45184326 2.42138672 C67.22463054 21.78978053 125.94444351 44.45333183 183.43670654 69.79638672 C184.67479937 70.34039045 185.91291766 70.88433622 187.15106201 71.42822266 C207.07569635 80.20261764 226.79062815 89.41791704 246.43670654 98.79638672 C247.15554016 99.13947876 247.87437378 99.4825708 248.61499023 99.83605957 C277.98411899 113.86686897 307.1071643 128.41889902 335.57342529 144.21240234 C338.83463385 146.01652249 342.10414826 147.80525985 345.37420654 149.59326172 C359.75506822 157.46522529 374.02506882 165.50128983 388.1383667 173.84619141 C390.49088919 175.23715733 392.84458212 176.6259763 395.19989014 178.01220703 C412.7728873 188.3570279 430.22032081 198.86470516 447.43670654 209.79638672 C448.92895752 210.74046387 448.92895752 210.74046387 450.45135498 211.70361328 C515.00172269 252.56840887 577.60388629 297.05870906 636.75750732 345.42871094 C638.94962013 347.21414507 641.1603605 348.9755031 643.37420654 350.73388672 C655.02221611 360.03271789 666.45523351 369.58769614 677.73504639 379.32861328 C680.04566814 381.32164886 682.36277659 383.3070587 684.68035889 385.29199219 C685.84911202 386.29308432 687.01740823 387.29471017 688.1852417 388.296875 C691.10762343 390.80445653 694.03480328 393.30600669 696.97186279 395.79638672 C703.98399202 401.75349954 710.82097961 407.85773864 717.55389404 414.12841797 C719.81906247 416.22477303 722.10185221 418.2790335 724.43670654 420.29638672 C729.64079599 424.80223355 734.65841386 429.51337471 739.70477295 434.19384766 C741.43810935 435.79768473 743.17672194 437.39559046 744.91717529 438.99169922 C749.95536641 443.61591058 754.95916868 448.24745259 759.74409485 453.13621521 C761.35372605 454.71499661 763.01618749 456.15836719 764.7411499 457.60913086 C771.39146141 463.40048839 777.52622324 469.7423397 783.75311279 475.97998047 C785.13723936 477.36343212 786.52151423 478.7467354 787.90592957 480.12989807 C790.79631496 483.01881534 793.68489994 485.90951748 796.57220459 488.80151367 C800.25594699 492.4909528 803.94416143 496.17588348 807.63374424 499.85948086 C810.48986947 502.71197654 813.34358892 505.56686949 816.19660759 508.422472 C817.55491886 509.78144593 818.91396108 511.13968971 820.2737751 512.49715996 C833.09823672 525.30435994 833.09823672 525.30435994 838.16911316 531.30860901 C839.97412722 533.42715879 841.94019878 535.3594762 843.93670654 537.29638672 C847.21774022 540.53894931 850.29130651 543.86685693 853.29217529 547.36669922 C856.27118843 550.74182886 859.35615642 554.01405034 862.43670654 557.29638672 C866.61557212 561.75304601 870.7582142 566.22128131 874.74139404 570.85498047 C876.88825705 573.31348488 879.10207786 575.70667572 881.31170654 578.10888672 C885.43577331 582.62542509 889.31607519 587.28771688 893.15545654 592.04638672 C895.50389623 594.8773825 897.94580557 597.59022269 900.43670654 600.29638672 C904.47625472 604.6901722 908.28350273 609.21477495 912.03045654 613.85888672 C914.73449424 617.15991975 917.51781886 620.38403885 920.31170654 623.60888672 C924.82132675 628.8268654 929.1344852 634.16399761 933.35980225 639.61376953 C936.47548598 643.6171683 939.69724947 647.50815041 942.99920654 651.35888672 C947.88791615 657.07383291 952.49027866 662.98235183 957.03973389 668.96972656 C959.11147307 671.67870115 961.2117449 674.36514439 963.31048584 677.05322266 C980.15042757 698.62374888 996.62858509 720.45695029 1012.43670654 742.79638672 C1013.09606201 743.72572021 1013.09606201 743.72572021 1013.76873779 744.67382812 C1016.78045871 748.91886996 1019.77997295 753.17231787 1022.77215576 757.43115234 C1023.88855356 759.01749172 1025.00740005 760.60211042 1026.12860107 762.18505859 C1044.7371007 788.46443568 1062.36596128 815.49532076 1079.43670654 842.79638672 C1079.94991455 843.6163916 1080.46312256 844.43639648 1080.99188232 845.28125 C1084.83630348 851.43494803 1088.64228237 857.61176591 1092.43670654 863.79638672 C1093.4093042 865.37782471 1093.4093042 865.37782471 1094.40155029 866.99121094 C1105.09648534 884.4008063 1115.40301677 901.99800982 1125.43670654 919.79638672 C1126.04111572 920.8648584 1126.6455249 921.93333008 1127.26824951 923.03417969 C1155.38018906 972.74590689 1182.03067021 1023.68497167 1205.43670654 1075.79638672 C1206.03317342 1077.1150788 1206.63003293 1078.43359333 1207.22723389 1079.75195312 C1231.68628698 1133.79234094 1253.68295901 1188.86711671 1273.43670654 1244.79638672 C1273.74996887 1245.68289917 1274.0632312 1246.56941162 1274.38598633 1247.48278809 C1304.09502463 1331.71635577 1327.67937485 1418.26587389 1345.43670654 1505.79638672 C1345.64599792 1506.82306458 1345.85528931 1507.84974243 1346.07092285 1508.90753174 C1365.64115131 1605.02918582 1377.83299907 1702.48455811 1383.62420654 1807.79638672 C1383.67960098 1808.86667618 1383.67960098 1808.86667618 1383.7361145 1809.95858765 C1383.95954715 1814.36429733 1384.15296599 1818.77070076 1384.32955933 1823.17852783 C1384.40425492 1825.00351711 1384.48308633 1826.82833981 1384.56509399 1828.65301514 C1385.64031558 1852.87604014 1385.6242112 1877.10317934 1385.62200928 1901.34570312 C1385.62192872 1906.02347744 1385.62877303 1910.70115233 1385.64251709 1915.37890625 C1385.76757763 1958.69803061 1384.69520267 2001.9490507 1381.68670654 2045.17138672 C1381.60433746 2046.38047699 1381.52196838 2047.58956726 1381.43710327 2048.83529663 C1373.50150827 2164.4699763 1355.58833501 2279.16331616 1228.43670654 2691.79638672 C1228.14191406 2692.49062744 1227.84712158 2693.18486816 1227.543396 2693.90014648 C1218.85597788 2714.35602854 1209.74075772 2734.61470451 1200.43670654 2754.79638672 C1200.12944641 2755.46418152 1199.82218628 2756.13197632 1199.50561523 2756.82000732 C1190.88390578 2775.55374622 1181.8886539 2794.09088213 1172.68670654 2812.54638672 C1172.2148291 2813.49540863 1171.74295166 2814.44443054 1171.2567749 2815.42221069 C1165.15649903 2827.67554818 1158.80301185 2839.75939764 1152.20428467 2851.75146484 C1149.84785262 2856.03461011 1147.53470944 2860.33811709 1145.25701904 2864.66357422 C1137.4765724 2879.42090141 1129.40046058 2893.92790826 1120.90447998 2908.28955078 C1118.92066857 2911.677737 1117.0200198 2915.10850464 1115.12420654 2918.54638672 C1109.29592409 2929.0454133 1102.93936203 2939.24257738 1096.6778717 2949.48661804 C1094.31253308 2953.35718703 1091.95849862 2957.23436817 1089.61248779 2961.11669922 C1083.19181113 2971.73423803 1076.65820189 2982.25460602 1069.85369873 2992.63037109 C1068.32471701 2994.96757402 1066.80563098 2997.31099938 1065.28826904 2999.65576172 C1045.4799499 3030.25436315 1024.92207922 3060.34897549 1003.43670654 3089.79638672 C1002.88547119 3090.55242188 1002.33423584 3091.30845703 1001.76629639 3092.08740234 C992.49279007 3104.78731812 983.00330839 3117.31625979 973.43670654 3129.79638672 C972.4874518 3131.03724461 971.53822896 3132.27812689 970.58905029 3133.51904297 C961.38860623 3145.53098065 952.00139361 3157.3783872 942.44061279 3169.10498047 C940.00554476 3172.0928173 937.58933241 3175.09485705 935.18670654 3178.10888672 C928.56471588 3186.40017086 921.81309745 3194.5622409 914.88348389 3202.59741211 C911.79994463 3206.18046704 908.78173106 3209.80546412 905.81170654 3213.48388672 C902.00528062 3218.17664647 897.97842883 3222.62244935 893.88592529 3227.06591797 C891.57610072 3229.64098555 889.40427642 3232.27893035 887.24920654 3234.98388672 C882.74642989 3240.57021925 877.87303872 3245.76700792 872.92816162 3250.96313477 C869.21524823 3254.86885012 865.61242034 3258.84440846 862.08026123 3262.91430664 C859.72736649 3265.6086717 857.30799086 3268.2376912 854.87420654 3270.85888672 C854.37171387 3271.40125977 853.86922119 3271.94363281 853.35150146 3272.50244141 C852.2766712 3273.66169793 851.20121818 3274.82037733 850.12518311 3275.97851562 C848.97253737 3277.21949309 847.82088765 3278.46139624 846.67010498 3279.70410156 C834.04496459 3293.33747596 834.04496459 3293.33747596 827.59686279 3299.57373047 C825.80088798 3301.42166838 824.14023981 3303.30096895 822.46942139 3305.25927734 C817.79919824 3310.60908805 812.77826592 3315.59943505 807.75311279 3320.61279297 C806.72838546 3321.63819596 805.70380643 3322.66374718 804.67936707 3323.68943787 C802.54370225 3325.82656735 800.40626447 3327.96190281 798.26751709 3330.09594727 C795.54662238 3332.81114547 792.83024345 3335.53081005 790.11518955 3338.25184727 C788.0038684 3340.36680747 785.89013979 3342.47934879 783.77570915 3344.59119987 C782.77399563 3345.59225335 781.77300478 3346.59403056 780.77279854 3347.59659004 C775.69268407 3352.68603573 770.59069232 3357.68077701 765.11161804 3362.34165955 C762.41200167 3364.68638361 759.92918879 3367.23542968 757.43670654 3369.79638672 C753.62393944 3373.71390017 749.67300401 3377.37210612 745.53826904 3380.94873047 C741.91426461 3384.1348905 738.43328751 3387.47176875 734.93670654 3390.79638672 C730.12414677 3395.37226322 725.26725019 3399.86456553 720.24969482 3404.21533203 C717.83301669 3406.3228472 715.47944591 3408.49562904 713.12420654 3410.67138672 C709.50146749 3413.97975586 705.81977763 3417.15651029 701.99920654 3420.23388672 C698.00444221 3423.45583747 694.19138987 3426.80316654 690.43670654 3430.29638672 C685.90815795 3434.50540093 681.23694661 3438.47081415 676.42108154 3442.34716797 C672.84394024 3445.28285854 669.35936395 3448.31513045 665.87420654 3451.35888672 C661.04561116 3455.56753803 656.17652994 3459.68738404 651.14373779 3463.65185547 C648.32671837 3465.8835202 645.53980405 3468.14914462 642.75531006 3470.42114258 C635.33710804 3476.47354793 627.8640402 3482.44756401 620.31317139 3488.33349609 C618.30725339 3489.8973083 616.30366217 3491.4640761 614.29998779 3493.03076172 C596.54889438 3506.8922919 578.63231456 3520.52314897 560.43670654 3533.79638672 C559.34591797 3534.59375244 559.34591797 3534.59375244 558.23309326 3535.40722656 C520.01377016 3563.31462455 480.59801586 3589.768215 440.43670654 3614.79638672 C439.48521729 3615.39 438.53372803 3615.98361328 437.55340576 3616.59521484 C422.07020951 3626.23667507 406.4329747 3635.58005129 390.66664124 3644.74850464 C386.83005753 3646.9804967 383.0035307 3649.22878535 379.18280029 3651.48779297 C365.79413092 3659.38815662 352.20859667 3666.84845567 338.4899292 3674.15869141 C334.83458367 3676.11935491 331.20297184 3678.12082978 327.57244873 3680.12695312 C311.3886878 3689.05412448 294.91183075 3697.42344059 278.43670654 3705.79638672 C277.72826599 3706.15661926 277.01982544 3706.51685181 276.28991699 3706.88800049 C257.8523007 3716.25739293 239.30085334 3725.31485482 220.46929932 3733.87188721 C218.29109804 3734.86261493 216.11432416 3735.85643534 213.93768311 3736.85058594 C130.07252026 3775.12562605 43.63924369 3808.01848117 -114.56329346 3853.79638672 C-115.53466248 3854.05013062 -116.50603149 3854.30387451 -117.50683594 3854.56530762 C-229.30285085 3883.71573779 -343.73984481 3902.73716828 -535.9046936 3916.6892395 C-537.7501002 3916.7636133 -539.59533059 3916.84244016 -541.44039917 3916.92477417 C-565.67519793 3917.99753759 -589.91328573 3917.9838905 -614.1675415 3917.98168945 C-618.85215166 3917.98160886 -623.53666263 3917.98845995 -628.22125244 3918.00219727 C-673.06031933 3918.1315028 -717.87169708 3916.97994045 -762.60626221 3913.76123047 C-764.11726753 3913.65318336 -764.11726753 3913.65318336 -765.65879822 3913.54295349 C-854.9053102 3907.02508988 -943.38898361 3894.67384482 -1227.56329346 3825.79638672 C-1228.55099731 3825.48699158 -1229.53870117 3825.17759644 -1230.55633545 3824.85882568 C-1302.11453449 3802.39502747 -1372.07018841 3775.31267998 -1440.56329346 3744.79638672 C-1441.2265564 3744.50117126 -1441.88981934 3744.20595581 -1442.57318115 3743.90179443 C-1464.80076304 3734.00088054 -1486.75029064 3723.57801048 -1508.56329346 3712.79638672 C-1509.93620544 3712.1181485 -1509.93620544 3712.1181485 -1511.33685303 3711.4262085 C-1517.35548167 3708.45135729 -1523.36964567 3705.46766257 -1529.37960815 3702.4753418 C-1531.33458184 3701.50218589 -1533.29010319 3700.5301292 -1535.24624634 3699.55932617 C-1548.4006398 3693.02540565 -1561.34644137 3686.17745336 -1574.20950317 3679.08816528 C-1577.31207368 3677.38545026 -1580.43086288 3675.71611896 -1583.55548096 3674.05419922 C-1597.05419239 3666.8702259 -1610.31749936 3659.36595763 -1623.48760986 3651.59814453 C-1627.78370042 3649.08146344 -1632.10584933 3646.61115283 -1636.42706299 3644.13793945 C-1648.06241409 3637.47244046 -1659.54028812 3630.60393095 -1670.89434814 3623.47070312 C-1673.69882149 3621.71136557 -1676.50932066 3619.96198095 -1679.32110596 3618.21435547 C-1685.41262634 3614.42547682 -1691.49038401 3610.61501032 -1697.56329346 3606.79638672 C-1698.52090576 3606.19552246 -1699.47851807 3605.5946582 -1700.46514893 3604.97558594 C-1727.35266756 3588.06872883 -1753.68372052 3570.20683635 -1779.56329346 3551.79638672 C-1780.17994873 3551.35907227 -1780.796604 3550.92175781 -1781.4319458 3550.47119141 C-1784.88024036 3548.02510132 -1788.31920662 3545.5664447 -1791.75128174 3543.09765625 C-1793.72614765 3541.67943538 -1795.7053031 3540.26730819 -1797.68438721 3538.85498047 C-1808.71427058 3530.96087575 -1819.51526504 3522.78899848 -1830.28106689 3514.53955078 C-1833.1944726 3512.31429225 -1836.12583404 3510.11479309 -1839.06329346 3507.92138672 C-1854.91279265 3496.06793689 -1870.42824265 3483.79315358 -1885.75469971 3471.27294922 C-1887.35564826 3469.96591131 -1888.95927322 3468.66215316 -1890.56329346 3467.35888672 C-1896.00751982 3462.92753968 -1901.38438915 3458.42375133 -1906.73248291 3453.87744141 C-1910.1021809 3451.01745819 -1913.50378253 3448.20364631 -1916.93829346 3445.42138672 C-1922.6441727 3440.77552568 -1928.18880499 3435.95431554 -1933.73516846 3431.12060547 C-1936.19072654 3428.98223398 -1938.65773899 3426.85905672 -1941.14141846 3424.75341797 C-1947.82145016 3419.08811001 -1954.33804607 3413.2928206 -1960.73101807 3407.3046875 C-1964.27031019 3403.98957896 -1967.85858017 3400.75247654 -1971.52813721 3397.58154297 C-1975.72928641 3393.89646583 -1979.8208216 3390.0882764 -1983.92950439 3386.30078125 C-1985.60968298 3384.7536712 -1987.29327637 3383.21034247 -1988.97735596 3381.66748047 C-1994.03884475 3377.0228372 -1999.06389765 3372.36766486 -2003.87043762 3367.45680237 C-2005.48015298 3365.87793397 -2007.14268251 3364.43448353 -2008.86773682 3362.98364258 C-2015.51804833 3357.19228505 -2021.65281015 3350.85043374 -2027.87969971 3344.61279297 C-2029.26382627 3343.22934132 -2030.64810114 3341.84603804 -2032.03251648 3340.46287537 C-2034.92290187 3337.5739581 -2037.81148685 3334.68325596 -2040.6987915 3331.79125977 C-2044.38253391 3328.10182064 -2048.07074834 3324.41688996 -2051.76033115 3320.73329258 C-2054.61645638 3317.8807969 -2057.47017584 3315.02590395 -2060.3231945 3312.17030144 C-2061.68150578 3310.81132751 -2063.04054799 3309.45308373 -2064.40036201 3308.09561348 C-2077.22482363 3295.28841349 -2077.22482363 3295.28841349 -2082.29570007 3289.28416443 C-2084.10071414 3287.16561465 -2086.06678569 3285.23329723 -2088.06329346 3283.29638672 C-2091.47141934 3279.98999594 -2094.58517183 3276.50260934 -2097.69415283 3272.91943359 C-2100.73391338 3269.46674841 -2103.90009844 3266.13567713 -2107.06329346 3262.79638672 C-2111.47192717 3258.14232392 -2115.79340186 3253.43721057 -2119.99591064 3248.59570312 C-2121.94298299 3246.36051259 -2123.93823815 3244.17168669 -2125.93829346 3241.98388672 C-2129.06752172 3238.5210859 -2132.06829695 3234.98959668 -2135.00079346 3231.35888672 C-2138.07665934 3227.55551169 -2141.25082512 3223.8955602 -2144.56329346 3220.29638672 C-2148.59962401 3215.90610103 -2152.40359875 3211.38463052 -2156.14923096 3206.74560547 C-2158.9019178 3203.38269517 -2161.72529313 3200.0872547 -2164.56329346 3196.79638672 C-2169.66220201 3190.87412131 -2174.64116582 3184.86674315 -2179.56329346 3178.79638672 C-2180.55885213 3177.58240605 -2181.554983 3176.36889448 -2182.55157471 3175.15576172 C-2188.76469849 3167.57567524 -2194.82594436 3159.90298679 -2200.74884033 3152.09399414 C-2204.36708336 3147.33219818 -2208.05965962 3142.63954266 -2211.81329346 3137.98388672 C-2216.87621123 3131.69334793 -2221.77241986 3125.2971222 -2226.56329346 3118.79638672 C-2227.06554443 3118.11624512 -2227.56779541 3117.43610352 -2228.08526611 3116.73535156 C-2231.02070226 3112.75990261 -2233.95199493 3108.78143887 -2236.87969971 3104.80029297 C-2239.298323 3101.5120667 -2241.72283926 3098.2283368 -2244.15313721 3094.94873047 C-2251.20059363 3085.43141192 -2258.14172325 3075.8510045 -2264.92364502 3066.14257812 C-2266.71404562 3063.58067375 -2268.50996142 3061.02267444 -2270.30548096 3058.46435547 C-2285.18589753 3037.21552402 -2299.48397204 3015.58272563 -2313.56329346 2993.79638672 C-2314.42470947 2992.46389893 -2314.42470947 2992.46389893 -2315.30352783 2991.10449219 C-2341.03649453 2951.20665699 -2365.23380677 2910.17108696 -2387.65631104 2868.32495117 C-2389.16452808 2865.52347069 -2390.6935663 2862.73378458 -2392.22613525 2859.94555664 C-2399.32356004 2847.0222012 -2406.18701699 2833.99808301 -2412.87579346 2820.85888672 C-2413.37119629 2819.88737671 -2413.86659912 2818.9158667 -2414.37701416 2817.91491699 C-2427.84729491 2791.48464243 -2440.6261337 2764.80900724 -2452.78302002 2737.75097656 C-2454.46625143 2734.00679689 -2456.16599059 2730.27035793 -2457.86798096 2726.53466797 C-2486.20019819 2664.15809293 -2510.03854826 2599.80243553 -2531.56329346 2534.79638672 C-2532.02351898 2533.40987915 -2532.02351898 2533.40987915 -2532.49304199 2531.99536133 C-2562.68244206 2440.95465274 -2585.15389423 2347.25330756 -2573.56329346 1432.79638672 C-2573.3166394 1431.78785645 -2573.06998535 1430.77932617 -2572.81585693 1429.74023438 C-2549.17408908 1333.22740101 -2518.33016777 1238.70117366 -2480.56329346 1146.79638672 C-2480.24356567 1146.01704773 -2479.92383789 1145.23770874 -2479.59442139 1144.43475342 C-2454.99682668 1084.52630971 -2428.07038202 1024.61732835 -2396.46954346 968.04638672 C-2394.18357332 963.95095853 -2391.97111073 959.81919378 -2389.78204346 955.67138672 C-2381.90523424 940.7533321 -2373.76782079 926.06153936 -2365.17315674 911.54003906 C-2363.14058328 908.07597164 -2361.1613013 904.58342215 -2359.18609619 901.08642578 C-2346.66252244 878.92359856 -2333.1455589 857.32109831 -2319.56329346 835.79638672 C-2318.96822998 834.84892578 -2318.3731665 833.90146484 -2317.7600708 832.92529297 C-2279.36254766 771.85386151 -2237.03734709 712.64150748 -2191.40142822 656.76147461 C-2187.87829998 652.44022331 -2184.42175526 648.07375167 -2181.00079346 643.67138672 C-2176.7850811 638.25766205 -2172.39297925 633.02258476 -2167.90289307 627.83496094 C-2164.90043387 624.36499754 -2161.95431257 620.86058537 -2159.06329346 617.29638672 C-2152.22177984 608.88082921 -2145.17343141 600.63246771 -2137.87579346 592.60888672 C-2134.95973489 589.40226004 -2132.19944488 586.12502229 -2129.50079346 582.73388672 C-2124.76544745 576.87107738 -2119.61359475 571.43406377 -2114.41070557 565.9855957 C-2110.58895519 561.97914232 -2106.87870926 557.90686136 -2103.25177002 553.72338867 C-2100.56985814 550.66261214 -2097.78791734 547.69864524 -2095.00079346 544.73388672 C-2093.7701983 543.42150523 -2092.53973326 542.10900174 -2091.30938721 540.79638672 C-2090.37715332 539.80251953 -2090.37715332 539.80251953 -2089.42608643 538.78857422 C-2087.62261119 536.85982482 -2085.8277608 534.92347089 -2084.03594971 532.98388672 C-2077.64651792 526.0779923 -2071.17112565 519.29361421 -2064.44415283 512.71411133 C-2061.65576302 509.96965623 -2059.00143202 507.17958568 -2056.46173096 504.20263672 C-2051.70139009 498.69583431 -2046.51999222 493.60380699 -2041.36627197 488.46899414 C-2039.62935746 486.73743972 -2037.89785456 485.00060313 -2036.16680908 483.26318359 C-2031.05147781 478.14510101 -2025.92532314 473.12955446 -2020.41656494 468.43139648 C-2016.79189862 465.2336109 -2013.44866927 461.74342694 -2010.06329346 458.29638672 C-2005.31139132 453.45792899 -2000.52173539 448.76924552 -1995.35626221 444.37060547 C-1993.51002478 442.74961705 -1991.78271139 441.05059503 -1990.06329346 439.29638672 C-1987.80531403 437.00312636 -1985.50332842 434.83210644 -1983.06329346 432.73388672 C-1978.95817566 429.1980333 -1975.01353018 425.50284735 -1971.06329346 421.79638672 C-1965.97635062 417.03112821 -1960.86935371 412.31815704 -1955.56329346 407.79638672 C-1953.29132332 405.86021553 -1951.02052651 403.92268 -1948.75079346 401.98388672 C-1948.14445068 401.46640869 -1947.53810791 400.94893066 -1946.91339111 400.41577148 C-1943.17219964 397.21110747 -1939.50197057 393.94413845 -1935.87579346 390.60888672 C-1931.54668369 386.63948432 -1927.0814009 382.89945207 -1922.51251221 379.21044922 C-1919.14960191 376.45776238 -1915.85416144 373.63438705 -1912.56329346 370.79638672 C-1906.64108015 365.69752302 -1900.6353176 360.71640628 -1894.56329346 355.79638672 C-1893.31428478 354.7772362 -1892.06560893 353.7576777 -1890.81719971 352.73779297 C-1882.70122334 346.11421722 -1874.52452431 339.57756299 -1866.2678833 333.13037109 C-1864.56726026 331.79949107 -1862.87120076 330.46301716 -1861.17657471 329.12451172 C-1841.73543196 313.77580185 -1821.95256126 298.88492212 -1801.83673096 284.43310547 C-1799.59590063 282.81986164 -1797.36001729 281.2000148 -1795.12579346 279.57763672 C-1790.61506505 276.30308606 -1786.09298699 273.04464733 -1781.56329346 269.79638672 C-1780.86768311 269.296875 -1780.17207275 268.79736328 -1779.4553833 268.28271484 C-1762.30931494 256.01444169 -1744.66243282 244.46867705 -1727.09942627 232.81079102 C-1723.51329927 230.42956427 -1719.9330619 228.0396786 -1716.35484314 225.64659119 C-1710.42851551 221.68492317 -1704.47928145 217.7691463 -1698.43829346 213.98388672 C-1697.64447266 213.4851001 -1696.85065186 212.98631348 -1696.03277588 212.47241211 C-1693.54455286 210.91115983 -1691.05396387 209.3537308 -1688.56329346 207.79638672 C-1687.77809326 207.30332031 -1686.99289307 206.81025391 -1686.18389893 206.30224609 C-1670.10494729 196.21115821 -1653.78085313 186.53638837 -1637.42901611 176.89654541 C-1635.6920303 175.87229883 -1633.95575813 174.84684227 -1632.21954346 173.82128906 C-1596.70218914 152.86178972 -1560.31302262 133.49225894 -1523.56329346 114.79638672 C-1522.88015076 114.4488031 -1522.19700806 114.10121948 -1521.49316406 113.74310303 C-1503.67889177 104.68733421 -1485.76325467 95.90996363 -1467.57403564 87.62646484 C-1464.72253816 86.3273325 -1461.87484676 85.02020699 -1459.02911377 83.70849609 C-1416.52608271 64.1228592 -1373.35287509 46.29899228 -1329.56329346 29.79638672 C-1328.86214417 29.53186707 -1328.16099487 29.26734741 -1327.43859863 28.99481201 C-1318.17895808 25.50545502 -1308.88342902 22.12061734 -1299.56329346 18.79638672 C-1298.80971558 18.52693237 -1298.0561377 18.25747803 -1297.27972412 17.9798584 C-1238.44344448 -3.04865824 -1178.73443974 -21.23982627 -1118.15423584 -36.5479126 C-1115.53681639 -37.21031394 -1112.9205877 -37.87726491 -1110.30450439 -38.54492188 C-1013.16380549 -63.27932421 -913.74450107 -79.79358754 0 0 Z " fill="#000000" transform="translate(2630.5632934570313,98.20361328125)"/>
<path d="M0 0 C2.16339704 -0.00437836 4.32475274 -0.04088868 6.48779297 -0.07861328 C21.8454695 -0.20063771 39.15091645 2.72983601 51.47216797 12.52685547 C57.49098911 18.61011795 60.4116035 25.49792213 60.54638672 33.93310547 C60.10198652 67.38432012 28.02709562 102.46356039 8.36352539 127.20361328 C2.85684907 134.14454383 -2.41466555 141.2632935 -7.70361328 148.37060547 C-5.24724213 149.59879104 -3.38218426 149.63483031 -0.63745117 149.81958008 C0.42223373 149.89313217 1.48191864 149.96668427 2.57371521 150.04246521 C3.72872025 150.11852493 4.88372528 150.19458466 6.07373047 150.27294922 C7.26881729 150.3555751 8.46390411 150.43820099 9.69520569 150.52333069 C13.54116815 150.78896445 17.38747388 151.04908048 21.23388672 151.30810547 C51.32827185 153.34085893 51.32827185 153.34085893 63.1962738 154.72044373 C68.3495416 155.31454259 73.48987111 155.63744141 78.67138672 155.87060547 C85.99379001 156.22050859 93.07405742 157.05629466 100.29638672 158.37060547 C98.71556934 163.57898272 96.52193875 168.35399655 94.17138672 173.24560547 C93.77032715 174.08639648 93.36926758 174.9271875 92.95605469 175.79345703 C90.18898436 181.5721041 87.34601868 187.30938546 84.45800781 193.02832031 C81.48614606 198.93567742 78.63859118 204.8999872 75.79638672 210.87060547 C71.80997689 219.230272 67.79573481 227.5684229 63.59179688 235.82128906 C62.60817366 237.75702098 61.62957684 239.695308 60.65332031 241.63476562 C45.5517951 271.63003319 29.6588612 301.07810798 7.29638672 326.37060547 C6.50232422 327.28712891 5.70826172 328.20365234 4.89013672 329.14794922 C0.33828938 334.33113155 -4.34841702 339.02529916 -9.70361328 343.37060547 C-10.61369141 344.12986328 -11.52376953 344.88912109 -12.46142578 345.67138672 C-24.8577139 355.77671022 -38.66241079 363.04901044 -53.70361328 368.37060547 C-54.83798828 368.88623047 -55.97236328 369.40185547 -57.14111328 369.93310547 C-69.7562529 375.02342497 -82.93392102 376.93211766 -96.32208252 378.86959839 C-98.49654344 379.19176619 -100.6686077 379.53080193 -102.83712769 379.89079285 C-111.7008739 381.3021291 -120.34410371 381.65086261 -129.30517578 381.60107422 C-130.75857502 381.59987696 -132.21197505 381.5994304 -133.66537476 381.59968567 C-136.68565846 381.59813669 -139.70582098 381.58997005 -142.72607422 381.57641602 C-146.56283611 381.55939816 -150.39946613 381.55560367 -154.23626137 381.5563612 C-157.2288637 381.55608705 -160.22143824 381.55056742 -163.21403122 381.54335976 C-164.62756517 381.54021879 -166.0411022 381.53821663 -167.45463943 381.53746605 C-175.9228804 381.52803693 -184.27713425 381.23046411 -192.70361328 380.37060547 C-193.00511292 380.98959213 -193.30661255 381.6085788 -193.61724854 382.24632263 C-194.78361587 384.52704292 -196.13864018 386.42913645 -197.68798828 388.46826172 C-198.28603271 389.25950439 -198.88407715 390.05074707 -199.50024414 390.8659668 C-200.14485596 391.71312256 -200.78946777 392.56027832 -201.45361328 393.43310547 C-202.82526554 395.25039238 -204.19634652 397.06811061 -205.56689453 398.88623047 C-206.26121582 399.80597656 -206.95553711 400.72572266 -207.67089844 401.67333984 C-235.1074667 438.07968216 -260.57316091 476.08519078 -283.70361328 515.37060547 C-284.18797852 516.19222168 -284.67234375 517.01383789 -285.17138672 517.86035156 C-300.50029646 543.97684073 -315.94023787 571.51096906 -326.74267578 599.85498047 C-327.77266498 602.55137496 -328.8660269 605.21947403 -329.95947266 607.890625 C-332.2304237 613.46490254 -334.36584216 619.02115119 -335.96533203 624.83154297 C-336.62445454 627.09836642 -337.35094785 629.32189133 -338.10595703 631.55810547 C-349.9173709 666.77167442 -362.33051884 712.92386937 -346.20361328 748.58544922 C-340.88735618 758.45652034 -333.98172553 764.3380587 -323.70361328 768.62060547 C-322.71361328 768.86810547 -321.72361328 769.11560547 -320.70361328 769.37060547 C-320.08228516 769.55365234 -319.46095703 769.73669922 -318.82080078 769.92529297 C-282.94522862 779.0504385 -245.41729439 758.68301874 -215.66015625 741.13818359 C-190.31356029 725.9846448 -165.99880857 708.9581101 -141.89306641 691.91748047 C-139.71283959 690.37712397 -137.52902813 688.84198133 -135.34423828 687.30810547 C-125.0659463 680.08463653 -114.87568934 672.74262618 -104.70361328 665.37060547 C-95.20594527 658.4873493 -85.68929295 651.63676464 -76.09570312 644.88769531 C-67.91175256 639.12246022 -59.80932228 633.24506554 -51.70361328 627.37060547 C-41.33797362 619.85830318 -30.9448297 612.39083142 -20.47314453 605.02685547 C-19.84625732 604.57955078 -19.21937012 604.13224609 -18.57348633 603.67138672 C-17.32579471 602.80342733 -16.05555508 601.96702823 -14.76538086 601.16357422 C-10.15502846 598.20137003 -8.51156934 595.72408092 -6.76611328 590.37060547 C-6.27264014 588.93135063 -5.7777779 587.49257154 -5.28173828 586.05419922 C-5.02714844 585.29220215 -4.77255859 584.53020508 -4.51025391 583.74511719 C7.08567499 549.61012795 23.1124062 516.8478826 41.70166016 486.01757812 C43.15519449 483.60496036 44.59153334 481.18310264 46.02294922 478.75732422 C57.25832191 459.87107696 69.83130131 441.73146115 83.29638672 424.37060547 C83.75174805 423.77779785 84.20710937 423.18499023 84.67626953 422.57421875 C90.65951435 414.78667154 96.87105927 407.23337613 103.31591797 399.82373047 C105.18559942 397.67225063 107.00506204 395.50212001 108.80810547 393.29248047 C115.86987561 384.66621521 123.67053328 376.80813877 131.54638672 368.93310547 C132.39768158 368.08045105 132.39768158 368.08045105 133.26617432 367.21057129 C139.42886515 361.04899273 145.63470827 354.99752478 152.29638672 349.37060547 C153.32979471 348.47054557 154.36238999 347.56955143 155.39404297 346.66748047 C185.83447819 320.5183846 222.18940989 296.09280876 263.54638672 296.24560547 C264.60857422 296.24173828 265.67076172 296.23787109 266.76513672 296.23388672 C267.79123047 296.23517578 268.81732422 296.23646484 269.87451172 296.23779297 C271.25751465 296.23948486 271.25751465 296.23948486 272.66845703 296.24121094 C275.31006418 296.37127892 277.71288804 296.82321019 280.29638672 297.37060547 C281.76529968 297.52704323 283.23709291 297.65836942 284.71044922 297.76513672 C305.38401713 299.40456483 329.52559565 301.5969596 344.60888672 317.62060547 C350.93455004 325.69067177 352.50876251 334.31116307 351.29638672 344.37060547 C345.75240866 375.25625539 322.14180179 402.34337442 302.43359375 425.48144531 C299.5031212 428.9257874 296.63343523 432.41090213 293.79638672 435.93310547 C289.67182682 441.00380097 285.30022073 445.80253026 280.85888672 450.59326172 C278.76092677 452.8671177 276.70077193 455.16087294 274.67138672 457.49560547 C273.84574219 458.44306641 273.84574219 458.44306641 273.00341797 459.40966797 C271.81199112 460.77830934 270.62199947 462.14820082 269.43310547 463.51904297 C263.92035945 469.76889815 258.08980081 475.64845243 252.14428711 481.48583984 C248.98766188 484.60161142 245.93399789 487.73821945 243.05419922 491.11279297 C237.63519139 497.40252115 231.59813878 503.12390325 225.69384766 508.95263672 C219.66759156 514.90869118 213.77177096 520.89561814 208.29638672 527.37060547 C207.33600431 528.46598654 206.37381897 529.55979003 205.40966797 530.65185547 C197.91375919 539.23483613 191.03704967 548.1873582 184.29638672 557.37060547 C179.76499734 563.53957615 175.17546421 569.57655385 170.17138672 575.37060547 C152.28879431 596.1935919 130.68593298 622.60339691 131.83544922 651.82763672 C132.672297 656.4444834 134.62771041 660.52921506 137.29638672 664.37060547 C140.5645366 666.54937206 142.12179729 666.77217106 145.94873047 666.14013672 C153.94750275 663.51824298 160.52159467 656.41513466 166.60888672 650.80810547 C167.44141968 650.04300659 167.44141968 650.04300659 168.29077148 649.26245117 C171.96554974 645.7944853 175.43811328 642.1643581 178.86407566 638.45352745 C186.93836247 629.71148685 195.27617562 621.25987706 203.70654297 612.86279297 C205.13209323 611.43911558 206.5574171 610.01521148 207.98252869 608.59109497 C211.68538239 604.89200741 215.39122861 601.1959329 219.09777832 597.50054932 C222.87871834 593.72991742 226.65676331 589.95638714 230.43505859 586.18310547 C236.52305794 580.10383196 242.61275887 574.02626961 248.70481873 567.95106506 C254.97008416 561.70318182 254.97008416 561.70318182 261.21557617 555.43554688 C264.0645452 552.56870015 266.91662372 549.70496894 269.76977539 546.84228516 C270.99138508 545.61564827 272.21209552 544.38811515 273.43188477 543.15966797 C285.20133395 531.30915978 285.20133395 531.30915978 291.46508789 525.98144531 C295.0861234 522.79632436 298.41885537 519.30965833 301.79638672 515.87060547 C306.55001523 511.03038992 311.35786758 506.36828664 316.50146484 501.94287109 C318.88031785 499.85910975 321.0908337 497.63576803 323.29638672 495.37060547 C326.88128284 491.74179025 330.55932271 488.32997687 334.43310547 485.01513672 C336.87832611 482.856986 339.13855598 480.5410849 341.42163086 478.21411133 C343.2324502 476.43347624 345.09783252 474.76844251 347.02294922 473.11279297 C351.17033246 469.5069531 355.17962301 465.77202146 359.17138672 461.99560547 C364.3497614 457.11832687 369.55847782 452.28658479 374.86669922 447.55029297 C377.7403191 444.97235101 380.58096615 442.35999319 383.42138672 439.74560547 C387.32728238 436.15444361 391.26463413 432.60784353 395.28076172 429.14013672 C396.85075106 427.76183212 398.3984911 426.35816934 399.93701172 424.94482422 C400.83935547 424.11595703 401.74169922 423.28708984 402.67138672 422.43310547 C403.50412109 421.66095703 404.33685547 420.88880859 405.19482422 420.09326172 C407.29638672 418.37060547 407.29638672 418.37060547 409.29638672 418.37060547 C409.29638672 417.71060547 409.29638672 417.05060547 409.29638672 416.37060547 C410.84879012 414.97734593 412.46668657 413.65680419 414.10888672 412.37060547 C418.13585966 409.15315205 422.00695684 405.87022325 425.79638672 402.37060547 C430.16408164 398.354547 434.66487908 394.57675092 439.28076172 390.85107422 C442.84309153 387.92091952 446.32103798 384.9029149 449.79638672 381.87060547 C454.97764654 377.35372629 460.21790283 372.93318784 465.56201172 368.60888672 C468.07783907 366.54950233 470.55530794 364.45360634 473.02563477 362.34033203 C478.31042494 357.82148756 483.67482858 353.4785595 489.21655273 349.27661133 C493.59461952 345.94506326 497.85666397 342.48578297 502.10888672 338.99560547 C509.31370744 333.10161397 516.68357876 327.46830879 524.171875 321.94042969 C526.39331311 320.29898553 528.60870636 318.64959875 530.82373047 316.99951172 C547.95423325 304.26945593 565.4256632 292.03968805 583.29638672 280.37060547 C584.03115234 279.88914062 584.76591797 279.40767578 585.52294922 278.91162109 C610.31985693 262.73315082 636.35124467 247.7945143 664.48388672 238.30810547 C665.58200684 237.9377417 666.68012695 237.56737793 667.81152344 237.18579102 C677.59660024 234.02737329 687.42093762 231.97244765 697.73388672 232.05810547 C698.45342529 232.06229492 699.17296387 232.06648438 699.91430664 232.07080078 C706.64607154 232.21109252 712.84083139 233.46460069 719.29638672 235.37060547 C720.29025391 235.62583984 721.28412109 235.88107422 722.30810547 236.14404297 C737.82309916 240.56530914 750.06274722 251.76958235 758.29638672 265.37060547 C771.31045266 289.0699045 772.76870671 316.27254098 766.29638672 342.37060547 C766.06822266 343.30259766 765.84005859 344.23458984 765.60498047 345.19482422 C763.78461423 351.82095733 761.04687484 358.08674469 758.29638672 364.37060547 C758.00554199 365.04784668 757.71469727 365.72508789 757.41503906 366.42285156 C747.72644184 388.94000741 736.30043206 410.59812501 723.29638672 431.37060547 C722.51690674 432.62623291 722.51690674 432.62623291 721.72167969 433.90722656 C707.40368375 456.93450785 691.93507563 479.22664633 676.29638672 501.37060547 C675.26113398 502.83928746 674.22597634 504.30803649 673.19091797 505.77685547 C671.20334538 508.5959896 669.21363234 511.41359435 667.22216797 514.22998047 C665.25754806 517.00865491 663.29684665 519.79002967 661.33935547 522.57373047 C660.34597457 523.9852653 659.35248429 525.39672315 658.35888672 526.80810547 C657.85905273 527.51862061 657.35921875 528.22913574 656.84423828 528.96118164 C654.40149712 532.42408494 651.94036385 535.86995909 649.42529297 539.28076172 C639.5169054 552.74596443 630.30661042 566.6702983 621.10084534 580.62055969 C618.55667712 584.47446889 615.99188269 588.31289016 613.40185547 592.13623047 C612.38724912 593.65166575 611.37289262 595.16726836 610.35888672 596.68310547 C609.91077637 597.33287354 609.46266602 597.9826416 609.00097656 598.65209961 C606.77680773 601.9400626 606.77680773 601.9400626 606.54248047 605.78857422 C606.79126953 606.31064453 607.04005859 606.83271484 607.29638672 607.37060547 C611.5558247 605.94565786 614.35290357 603.8639161 617.73388672 600.93310547 C618.79096457 600.02898635 619.84962362 599.1267134 620.90966797 598.22607422 C621.46090332 597.75733887 622.01213867 597.28860352 622.58007812 596.80566406 C625.47462834 594.38544128 628.44648563 592.06580954 631.42138672 589.74560547 C632.61152716 588.81596441 633.80163204 587.88627782 634.99169922 586.95654297 C635.55663086 586.51536133 636.1215625 586.07417969 636.70361328 585.61962891 C638.91423484 583.88610041 641.10624104 582.12990281 643.29638672 580.37060547 C651.77749197 573.56919964 660.34668024 566.87993225 668.93603516 560.21606445 C675.96392407 554.7629543 682.95605216 549.27126778 689.89160156 543.70117188 C696.32009635 538.54012208 702.80679318 533.45445209 709.29638672 528.37060547 C718.82461258 520.90627559 718.82461258 520.90627559 728.29638672 513.37060547 C736.77749197 506.56919964 745.34668024 499.87993225 753.93603516 493.21606445 C760.96392407 487.7629543 767.95605216 482.27126778 774.89160156 476.70117188 C781.32009635 471.54012208 787.80679318 466.45445209 794.29638672 461.37060547 C796.71371189 459.47561034 799.13035736 457.57975241 801.54638672 455.68310547 C802.13718018 455.21936523 802.72797363 454.755625 803.33666992 454.27783203 C806.58808182 451.72266273 809.8247764 449.1508398 813.04638672 446.55810547 C817.62864691 442.87727351 822.27427763 439.28132351 826.92138672 435.68310547 C832.82070718 431.1145278 838.65403429 426.47955125 844.42138672 421.74560547 C850.34852389 416.88261535 856.41130158 412.24590994 862.5715332 407.68310547 C867.66100984 403.89535432 872.52016464 399.90824126 877.36279297 395.80810547 C881.03137521 392.75990931 884.80115187 389.86240839 888.59326172 386.97070312 C891.75555604 384.55841596 894.88748655 382.11684575 897.98388672 379.62060547 C902.58420272 375.91500247 907.25042875 372.29879292 911.92138672 368.68310547 C917.82077284 364.11461499 923.65403674 359.47954924 929.42138672 354.74560547 C935.34568345 349.88494582 941.40534007 345.25015745 947.56274414 340.68969727 C952.74693296 336.83156194 957.71065722 332.76902437 962.64404297 328.59716797 C965.65637066 326.06840981 968.73805977 323.65104928 971.85498047 321.25341797 C974.8306454 318.95858517 977.7820465 316.63342081 980.73388672 314.30810547 C986.98322512 309.3889062 993.26331576 304.51002589 999.54980469 299.63842773 C1003.74743025 296.37820954 1007.90810602 293.0798418 1012.0324707 289.72753906 C1020.50260901 282.85496327 1029.27840345 276.5041378 1038.29638672 270.37060547 C1039.00585449 269.88672363 1039.71532227 269.4028418 1040.44628906 268.90429688 C1050.34420168 262.19969578 1060.42993143 256.36566959 1071.29638672 251.37060547 C1072.14072266 250.98001953 1072.98505859 250.58943359 1073.85498047 250.18701172 C1079.40926533 248.32965886 1086.05608088 248.15688266 1091.56982422 250.22216797 C1102.80506878 257.69704497 1109.25123007 272.7085586 1115.32714844 284.18579102 C1120.12201887 293.20102153 1125.43697615 301.78820132 1130.98876953 310.3515625 C1144.95315562 331.91345066 1158.7010528 353.77508455 1153.91259766 380.51367188 C1152.84537621 385.00870166 1151.16703116 389.15822519 1149.29638672 393.37060547 C1149.02294434 394.00240723 1148.74950195 394.63420898 1148.46777344 395.28515625 C1141.60701649 410.90531764 1131.32278359 424.45396913 1120.29638672 437.37060547 C1119.38582228 438.45489823 1118.47568923 439.53955336 1117.56591797 440.62451172 C1111.07772444 448.31844689 1104.3109549 455.71106949 1097.41357422 463.03857422 C1094.555202 466.08013213 1091.78844934 469.18742384 1089.06591797 472.35107422 C1086.68754175 475.06546827 1084.24126318 477.71629672 1081.79638672 480.37060547 C1078.15146428 484.3298618 1074.55378175 488.3218874 1071.03076172 492.39013672 C1069.02374134 494.68193702 1066.97235821 496.93057299 1064.92138672 499.18310547 C1061.81109821 502.62438752 1058.8316036 506.13381845 1055.92138672 509.74560547 C1052.67686155 513.75886831 1049.30891489 517.59475931 1045.79638672 521.37060547 C1041.58739883 525.89918077 1037.62196114 530.5703631 1033.74560547 535.38623047 C1030.80991269 538.96337446 1027.777582 542.44789186 1024.73388672 545.93310547 C1019.7678336 551.63255396 1014.95586321 557.41632338 1010.29638672 563.37060547 C1009.10722656 564.86527344 1009.10722656 564.86527344 1007.89404297 566.39013672 C976.88515559 605.08436124 976.88515559 605.08436124 955.29638672 649.37060547 C954.94705078 650.22783203 954.59771484 651.08505859 954.23779297 651.96826172 C948.784506 665.88432596 947.66054237 685.73591135 953.03076172 699.69091797 C955.03492238 703.93429517 957.44168462 707.65518917 960.29638672 711.37060547 C960.97314453 712.31033203 960.97314453 712.31033203 961.66357422 713.26904297 C966.1492313 719.07252022 972.35462739 723.05668569 979.29638672 725.37060547 C1022.58324366 729.4329105 1070.0535721 694.89710719 1105.14697266 673.30517578 C1107.86070564 671.63822848 1110.57982285 669.98101062 1113.30419922 668.33154297 C1132.50739376 656.69827293 1151.32897875 644.46435608 1170.08984375 632.13427734 C1173.2171716 630.07897798 1176.34608405 628.02610862 1179.47558594 625.97412109 C1184.29752907 622.81209558 1189.11713091 619.64652474 1193.93548584 616.47903442 C1195.85450878 615.21806924 1197.77412686 613.9580092 1199.69439697 612.69894409 C1209.73324986 606.11498677 1219.73612904 599.50315049 1229.47369385 592.4778595 C1232.53113613 590.2783342 1235.57341205 588.15907173 1238.83105469 586.26538086 C1246.83433908 581.51232528 1249.60067176 577.25148427 1252.48388672 568.49560547 C1253.37520333 566.08086249 1254.27954242 563.67089817 1255.19482422 561.26513672 C1255.43314468 560.63332993 1255.67146515 560.00152313 1255.91700745 559.35057068 C1258.97109953 551.38794534 1262.76883366 543.79017606 1266.60888672 536.18310547 C1267.15635056 535.09746811 1267.15635056 535.09746811 1267.71487427 533.98989868 C1286.77611737 496.34710913 1310.19895469 460.35823119 1337.75341797 428.34716797 C1340.13394412 425.56074565 1342.44013164 422.7285337 1344.73388672 419.87060547 C1348.60028839 415.11569497 1352.68167539 410.60398902 1356.87231445 406.13623047 C1359.53201446 403.29921712 1362.12693145 400.42460153 1364.66748047 397.47998047 C1368.35352433 393.24678948 1372.25451829 389.26444958 1376.23388672 385.30810547 C1377.2306543 384.30553711 1377.2306543 384.30553711 1378.24755859 383.28271484 C1382.16622997 379.37164516 1386.19571515 375.6547468 1390.38745117 372.03881836 C1392.73978828 369.98311821 1395.00207002 367.84398967 1397.26586914 365.69189453 C1404.09842778 359.20695907 1411.24458228 353.33345789 1418.71484375 347.60546875 C1421.00323945 345.8186973 1423.20628597 343.93454807 1425.42138672 342.05810547 C1452.9835273 319.45957147 1485.90241439 300.09431767 1520.17138672 290.05810547 C1521.47390381 289.67549561 1521.47390381 289.67549561 1522.80273438 289.28515625 C1546.09070041 282.74810505 1575.33666694 283.81660861 1597.29638672 294.37060547 C1598.73691406 294.99902344 1598.73691406 294.99902344 1600.20654297 295.64013672 C1612.49321912 301.27864929 1621.38495473 309.64726793 1626.92529297 322.00341797 C1634.30084822 342.46256689 1624.41750622 366.37335461 1615.94873047 384.81591797 C1605.92271841 406.05900763 1592.80478083 425.92231717 1578.29638672 444.37060547 C1577.42992612 445.49125474 1576.564076 446.61237619 1575.69873047 447.73388672 C1569.8904349 455.2287942 1563.88054607 462.52836416 1557.70556641 469.72314453 C1556.27236132 471.39869337 1554.84988934 473.08287521 1553.42919922 474.76904297 C1546.63851719 482.80160511 1539.57154573 490.5312278 1532.34814453 498.17529297 C1530.30755523 500.35865554 1528.29220975 502.56404405 1526.27716064 504.77095032 C1519.51774572 512.15559113 1512.53075082 519.29051036 1505.44042969 526.35693359 C1503.53055678 528.26139052 1501.62616523 530.17121366 1499.72216797 532.08154297 C1494.2291159 537.57727075 1488.75049355 543.02191212 1482.82666016 548.05859375 C1480.87667091 549.73045754 1479.07984193 551.52345543 1477.29638672 553.37060547 C1474.14658642 556.56321859 1470.88419183 559.54221826 1467.48388672 562.46435547 C1464.94127273 564.68006195 1462.46528473 566.96159139 1459.98388672 569.24560547 C1455.44463712 573.38986512 1450.76180376 577.29638945 1445.97998047 581.15576172 C1443.34930115 583.32693373 1440.81696247 585.57301904 1438.29638672 587.87060547 C1433.12091698 592.57483935 1427.74494781 596.98776034 1422.29638672 601.37060547 C1421.18681888 602.27271209 1420.07745231 603.1750663 1418.96826172 604.07763672 C1408.62509083 612.45860749 1398.00796237 620.4674948 1387.29638672 628.37060547 C1386.61060547 628.88252441 1385.92482422 629.39444336 1385.21826172 629.921875 C1380.52789137 633.37060547 1380.52789137 633.37060547 1378.29638672 633.37060547 C1378.20550781 634.61777344 1378.20550781 634.61777344 1378.11279297 635.89013672 C1377.98710937 637.52015625 1377.98710937 637.52015625 1377.85888672 639.18310547 C1377.77767578 640.26205078 1377.69646484 641.34099609 1377.61279297 642.45263672 C1377.29638672 645.37060547 1377.29638672 645.37060547 1376.29638672 648.37060547 C1375.00113091 670.82408826 1374.50579243 693.9538859 1387.29638672 713.37060547 C1387.83134766 714.19947266 1388.36630859 715.02833984 1388.91748047 715.88232422 C1400.83595711 732.7168152 1422.00878154 739.34810996 1441.37231445 742.94140625 C1450.28662953 744.3889148 1459.01473093 744.68040338 1468.01928711 744.63134766 C1470.35996287 744.62060053 1472.69987423 744.63132602 1475.04052734 744.64404297 C1489.42214856 744.65825799 1502.48850947 742.32837135 1516.29638672 738.37060547 C1517.28509766 738.10763672 1518.27380859 737.84466797 1519.29248047 737.57373047 C1548.98316734 729.2145995 1576.83745157 713.43825072 1602.29638672 696.37060547 C1603.01826172 695.89026855 1603.74013672 695.40993164 1604.48388672 694.91503906 C1621.28652599 683.70134586 1637.36538284 671.45908103 1653.24316406 658.98291016 C1655.14975335 657.48575015 1657.06013969 655.99362163 1658.97216797 654.50341797 C1665.07679218 649.73760218 1671.1144095 644.89924971 1677.10888672 639.99560547 C1683.39976276 634.85061407 1689.80852852 629.88269639 1696.28295898 624.97143555 C1701.16725602 621.25864679 1705.96239329 617.46713014 1710.62451172 613.47607422 C1713.29638672 611.37060547 1713.29638672 611.37060547 1716.46826172 609.54638672 C1728.34513129 602.22789315 1731.20611331 590.66944743 1735.87207031 578.06689453 C1747.4151155 548.11116876 1763.60893074 519.69862379 1780.29638672 492.37060547 C1781.24215576 490.8138208 1781.24215576 490.8138208 1782.20703125 489.22558594 C1798.62651278 462.267526 1816.79604918 436.39903777 1836.90673828 412.06445312 C1838.81901648 409.73357011 1840.68195333 407.36483603 1842.54638672 404.99560547 C1845.8993753 400.78142825 1849.48013416 396.81328344 1853.11669922 392.84326172 C1855.8948487 389.69170505 1858.40612852 386.37667932 1860.88623047 382.98779297 C1861.35158203 382.45412109 1861.81693359 381.92044922 1862.29638672 381.37060547 C1862.95638672 381.37060547 1863.61638672 381.37060547 1864.29638672 381.37060547 C1864.53744141 380.80212891 1864.77849609 380.23365234 1865.02685547 379.64794922 C1866.54606759 376.92271639 1868.37057653 375.10370207 1870.60888672 372.93310547 C1871.36814453 372.19189453 1872.12740234 371.45068359 1872.90966797 370.68701172 C1874.09109375 369.54039062 1874.09109375 369.54039062 1875.29638672 368.37060547 C1878.61927499 365.06018712 1881.91928066 361.72815099 1885.21044922 358.38623047 C1886.62956504 356.9532985 1888.04870056 355.52038565 1889.46875 354.08837891 C1890.42828026 353.11885018 1891.3860007 352.14752654 1892.34179688 351.17431641 C1898.25035469 345.16152599 1904.31393493 339.52389205 1910.92993164 334.28564453 C1913.05548833 332.56555099 1915.02518951 330.77565166 1916.98388672 328.87060547 C1935.19435328 312.82894191 1956.20256133 311.1534652 1979.29638672 311.18310547 C1980.23223602 311.18404205 1981.16808533 311.18497864 1982.1322937 311.1859436 C2054.19132821 311.34218375 2054.19132821 311.34218375 2076.17138672 330.93310547 C2080.85453993 336.30495768 2081.79874214 340.04460471 2081.67138672 346.99560547 C2081.65978516 347.80175293 2081.64818359 348.60790039 2081.63623047 349.43847656 C2081.28507754 362.29945245 2076.25662617 372.2391435 2070.29638672 383.37060547 C2069.68794922 384.52689453 2069.07951172 385.68318359 2068.45263672 386.87451172 C2059.99596466 402.33660491 2048.95504256 416.11232753 2037.73193359 429.63525391 C2035.73313709 432.05148614 2033.76755984 434.49431829 2031.79638672 436.93310547 C2023.22068284 447.39013378 2014.26894237 457.5022687 2005.05419922 467.39794922 C2002.64507063 469.98623507 2000.27654959 472.60799687 1997.92138672 475.24560547 C1992.44821947 481.34764651 1986.84226008 487.32432403 1981.23486328 493.30273438 C1979.22968803 495.44175634 1977.22786352 497.58388363 1975.22607422 499.72607422 C1969.31014942 506.04573986 1963.39393032 512.34987309 1957.23388672 518.43310547 C1954.36452577 521.26850948 1951.59389107 524.10795183 1948.98388672 527.18310547 C1945.0593065 531.791874 1940.71830932 535.97388169 1936.41918945 540.22827148 C1932.77943613 543.84466497 1929.31497693 547.5304534 1925.99951172 551.44873047 C1923.86239009 553.86034479 1921.58844393 556.10599804 1919.29638672 558.37060547 C1915.81205267 561.8183723 1912.51425855 565.32974481 1909.33154297 569.05419922 C1907.14822007 571.53924813 1904.89720904 573.94939214 1902.6328125 576.36035156 C1897.3605387 581.97558639 1892.27606164 587.65799313 1887.46435547 593.67919922 C1885.17313973 596.52360939 1882.7985935 599.28531953 1880.42138672 602.05810547 C1876.50407044 606.75276419 1872.90132138 611.59370826 1869.42138672 616.62060547 C1868.96908691 617.26989014 1868.51678711 617.9191748 1868.05078125 618.58813477 C1865.0428864 623.00685684 1862.59345097 627.54966864 1860.29638672 632.37060547 C1859.74917969 633.3981897 1859.74917969 633.3981897 1859.19091797 634.4465332 C1857.10613672 638.93074746 1858.4959391 644.91437479 1859.97998047 649.46826172 C1862.43198655 654.42676291 1866.25931404 657.3836633 1871.29638672 659.37060547 C1878.29688176 660.92627103 1884.00130311 658.81419859 1890.14794922 655.46435547 C1902.93371221 646.96166445 1912.88888788 634.5770194 1922.20214844 622.55615234 C1926.3229115 617.26236757 1930.75701823 612.30846813 1935.29638672 607.37060547 C1936.46773337 606.04138166 1937.63463265 604.7082214 1938.79638672 603.37060547 C1942.15499135 599.51672273 1945.56985338 595.71562306 1948.99560547 591.92138672 C1950.46048782 590.2973321 1951.92182503 588.67006762 1953.37841797 587.03857422 C1955.67275209 584.47181452 1957.98164404 581.91897901 1960.29638672 579.37060547 C1960.73917969 578.88124512 1961.18197266 578.39188477 1961.63818359 577.88769531 C1970.11177216 568.55686785 1978.95757475 559.60300568 1987.85888672 550.68310547 C1988.43540985 550.10399414 1989.01193298 549.52488281 1989.60592651 548.92822266 C1991.27194359 547.25630812 1992.94168555 545.58821184 1994.61279297 543.92138672 C1995.11130768 543.4208931 1995.60982239 542.92039948 1996.1234436 542.40473938 C1999.03705083 539.5101711 2002.06720797 536.9041476 2005.29638672 534.37060547 C2006.98522914 532.72641362 2008.65180944 531.05907256 2010.29638672 529.37060547 C2015.56355911 524.02610102 2020.82984673 518.77983249 2026.54248047 513.90966797 C2028.17034874 512.4812045 2029.67393082 510.99604778 2031.17138672 509.43310547 C2033.29638672 507.37060547 2033.29638672 507.37060547 2035.29638672 507.37060547 C2035.29638672 506.71060547 2035.29638672 506.05060547 2035.29638672 505.37060547 C2036.97607422 503.64404297 2036.97607422 503.64404297 2039.17138672 501.74560547 C2040.25033203 500.79814453 2040.25033203 500.79814453 2041.35107422 499.83154297 C2043.29638672 498.37060547 2043.29638672 498.37060547 2045.29638672 498.37060547 C2045.29638672 497.71060547 2045.29638672 497.05060547 2045.29638672 496.37060547 C2046.99541695 494.85319571 2048.75711395 493.40547747 2050.54638672 491.99560547 C2053.34951984 489.77831234 2056.03339869 487.64003027 2058.53076172 485.08154297 C2060.29638672 483.37060547 2060.29638672 483.37060547 2062.29638672 483.37060547 C2062.29638672 482.71060547 2062.29638672 482.05060547 2062.29638672 481.37060547 C2063.86925356 479.95622141 2065.50778667 478.61456146 2067.17138672 477.30810547 C2071.00867199 474.24220789 2074.73654183 471.12522893 2078.35888672 467.80810547 C2082.31437688 464.20711678 2086.397063 460.8446408 2090.59716797 457.53466797 C2093.71344109 455.03623771 2096.75656256 452.46100277 2099.79638672 449.87060547 C2104.3094049 446.03062699 2108.86990265 442.2693461 2113.51513672 438.58935547 C2116.37209886 436.31020589 2119.20380659 434.00223445 2122.03393555 431.68994141 C2128.64964735 426.28777175 2135.3260201 420.98808825 2142.11669922 415.80810547 C2145.37145747 413.32258106 2148.58394645 410.78542503 2151.79638672 408.24560547 C2172.4729705 391.94579535 2193.68718207 376.36638074 2215.05371094 360.98828125 C2217.32701651 359.34851174 2219.595516 357.70229237 2221.86279297 356.05419922 C2230.80310877 349.56041462 2239.80920323 343.18499401 2248.94628906 336.97119141 C2251.61473587 335.15378675 2254.27775099 333.32855023 2256.94091797 331.50341797 C2304.20601897 299.16849948 2353.09115158 265.89988388 2405.85888672 243.18310547 C2406.67228516 242.8328833 2407.48568359 242.48266113 2408.32373047 242.12182617 C2417.18397524 238.42300514 2426.56605824 234.59084524 2436.29638672 236.37060547 C2439.46449153 237.91362025 2441.80380342 239.90012934 2444.29638672 242.37060547 C2445.06015625 243.09570312 2445.06015625 243.09570312 2445.83935547 243.83544922 C2457.17718935 255.78120985 2463.16447228 273.23703214 2468.02294922 288.60498047 C2469.01004185 291.52386789 2470.08051041 294.31403018 2471.25732422 297.15576172 C2473.36608437 302.3601305 2474.87839812 307.63059861 2476.29638672 313.05810547 C2476.67984253 314.49875366 2476.67984253 314.49875366 2477.07104492 315.96850586 C2477.58156552 317.88773571 2478.08984869 319.80756236 2478.59570312 321.72802734 C2479.2046293 324.0245489 2479.82853262 326.31579531 2480.46435547 328.60498047 C2483.62598693 340.08860738 2486.29475367 351.46131084 2487.04638672 363.37060547 C2487.11345825 364.411604 2487.11345825 364.411604 2487.18188477 365.47363281 C2487.59195884 373.85939456 2485.9561913 380.00806604 2482.29638672 387.37060547 C2481.78462891 388.44052734 2481.27287109 389.51044922 2480.74560547 390.61279297 C2472.31201527 407.67708565 2459.96524314 422.30270782 2447.29638672 436.37060547 C2446.47267578 437.29357422 2445.64896484 438.21654297 2444.80029297 439.16748047 C2443.34283608 440.79417412 2441.88088831 442.41686013 2440.41357422 444.03466797 C2438.93244842 445.66882522 2437.45910962 447.31005875 2435.99169922 448.95654297 C2432.08872103 453.33260942 2428.12824626 457.58321397 2423.94482422 461.69091797 C2422.30863762 463.35812232 2420.8043101 465.08712249 2419.29638672 466.87060547 C2415.6738255 471.08594943 2411.74277488 474.96249459 2407.79638672 478.87060547 C2402.12137807 484.4560446 2402.12137807 484.4560446 2396.79638672 490.37060547 C2392.76367815 495.1594469 2388.22705523 499.46351279 2383.78271484 503.86474609 C2379.94532425 507.67913535 2376.25863426 511.54794511 2372.76513672 515.68310547 C2371.18375703 517.5000098 2369.51441476 519.18271827 2367.79638672 520.87060547 C2364.78225089 523.8379587 2361.99721339 526.94405839 2359.23779297 530.14794922 C2357.00834611 532.7003743 2354.7163729 535.18948061 2352.42138672 537.68310547 C2348.34901428 542.14799573 2344.49010074 546.73668702 2340.69873047 551.44091797 C2338.51160989 554.10813819 2336.27270001 556.71394781 2334.00439453 559.31152344 C2312.0407712 584.54077221 2290.27547643 614.56753983 2279.29638672 646.37060547 C2278.5955774 648.06124401 2277.88750751 649.74889545 2277.17138672 651.43310547 C2271.31080699 666.13181753 2266.59279267 687.13325478 2271.32373047 702.76513672 C2275.10365262 711.089342 2280.72865147 716.53860961 2288.42138672 721.30810547 C2291.79553827 722.55507452 2294.7048081 723.07130725 2298.29638672 723.37060547 C2299.33859375 723.46728516 2299.33859375 723.46728516 2300.40185547 723.56591797 C2316.0586512 724.35269162 2330.62078783 717.0865533 2344.29638672 710.37060547 C2345.14894043 709.95391602 2346.00149414 709.53722656 2346.87988281 709.10791016 C2366.79505448 699.27260716 2385.23232558 687.2397805 2403.0546875 674.02685547 C2405.38490867 672.30520219 2407.72784342 670.60208988 2410.07373047 668.90185547 C2419.10938271 662.33303638 2427.91080082 655.55741665 2436.53076172 648.45263672 C2440.08853174 645.52340607 2443.71558037 642.69214041 2447.35888672 639.87060547 C2453.03800267 635.45468416 2458.48547655 630.80799743 2463.89770508 626.0703125 C2468.37432548 622.15378068 2472.93204306 618.35715092 2477.55419922 614.61279297 C2480.6663882 612.06806864 2483.73365169 609.47442322 2486.79638672 606.87060547 C2491.64587394 602.74946599 2496.54799795 598.70068935 2501.48388672 594.68310547 C2504.61438338 592.10914155 2507.70811133 589.49491461 2510.79638672 586.87060547 C2515.64598053 582.74958913 2520.54799478 578.70069193 2525.48388672 574.68310547 C2528.61438338 572.10914155 2531.70811133 569.49491461 2534.79638672 566.87060547 C2538.76546607 563.49781973 2542.75655535 560.1588403 2546.79638672 556.87060547 C2548.63043041 555.3714741 2550.46373591 553.87143928 2552.29638672 552.37060547 C2552.80137695 551.95875 2553.30636719 551.54689453 2553.82666016 551.12255859 C2560.20762418 545.89998496 2566.33431732 540.51167841 2572.17138672 534.68310547 C2572.68233887 534.17295898 2573.19329102 533.6628125 2573.71972656 533.13720703 C2576.45061427 530.36648465 2579.04998539 527.52051618 2581.58544922 524.56982422 C2586.50772108 518.89220786 2591.91694633 513.70455707 2597.26904297 508.43701172 C2601.54651709 504.20073317 2605.65926583 499.90797582 2609.58056641 495.34033203 C2612.67062355 491.79300974 2615.93244898 488.40647045 2619.17138672 484.99560547 C2628.64751298 474.96428817 2637.78356289 464.69761745 2646.73486328 454.19824219 C2648.28997217 452.37811318 2649.85073893 450.56300891 2651.41357422 448.74951172 C2661.35800259 437.20540962 2670.97610941 425.42420316 2680.29638672 413.37060547 C2681.02196777 412.4325708 2681.02196777 412.4325708 2681.76220703 411.47558594 C2690.92936617 399.57038091 2699.60843233 387.28999984 2707.29638672 374.37060547 C2706.65095917 374.360298 2706.00553162 374.34999054 2705.34054565 374.33937073 C2698.55832822 374.23029726 2691.77621711 374.11579575 2684.99414062 373.99829102 C2682.47072599 373.95526178 2679.94728819 373.91356774 2677.42382812 373.87329102 C2653.17614936 373.48467567 2653.17614936 373.48467567 2642.45703125 372.59545898 C2635.91210316 372.1298419 2629.35539545 372.08111028 2622.79638672 372.05810547 C2622.04270813 372.05515472 2621.28902954 372.05220398 2620.51251221 372.04916382 C2606.04504955 372.03645142 2592.12172154 373.60152447 2577.82128906 375.84033203 C2572.05746793 376.70742024 2566.27285591 377.383315 2560.48388672 378.05810547 C2559.48212402 378.17710205 2558.48036133 378.29609863 2557.44824219 378.41870117 C2551.73377271 379.09555593 2546.01630873 379.74159041 2540.29638672 380.37060547 C2543.53914329 373.61271146 2547.10734775 367.20528321 2551.10888672 360.87060547 C2552.26559877 359.02063388 2553.42182653 357.1703594 2554.57763672 355.31982422 C2555.18349609 354.35222168 2555.78935547 353.38461914 2556.41357422 352.38769531 C2559.67065706 347.16842279 2562.88802449 341.92477742 2566.10888672 336.68310547 C2566.77742676 335.59690918 2567.4459668 334.51071289 2568.13476562 333.39160156 C2571.56858118 327.81236889 2574.99594489 322.22930013 2578.41357422 316.64013672 C2586.509275 303.41486994 2594.75734489 290.31409313 2603.29638672 277.37060547 C2604.00923828 276.28134766 2604.72208984 275.19208984 2605.45654297 274.06982422 C2614.47122888 260.39045483 2623.953467 247.07762112 2634.29638672 234.37060547 C2634.73805176 233.82452637 2635.1797168 233.27844727 2635.63476562 232.71582031 C2650.13398063 214.87103981 2666.51835132 200.15303165 2686.29638672 188.37060547 C2686.86373535 188.02932617 2687.43108398 187.68804688 2688.015625 187.33642578 C2721.34238157 167.58793663 2762.51283166 162.20113108 2800.54101562 159.57666016 C2805.09257924 159.23628095 2809.63035673 158.7652925 2814.17138672 158.30810547 C2829.56515566 156.80876851 2844.83188873 156.20608953 2860.29638672 156.37060547 C2860.52455078 155.86013672 2860.75271484 155.34966797 2860.98779297 154.82373047 C2862.80875766 151.41010113 2865.02517663 148.28982363 2867.23388672 145.12060547 C2868.23918177 143.6688426 2869.24438779 142.21701807 2870.24951172 140.76513672 C2870.760625 140.02859863 2871.27173828 139.29206055 2871.79833984 138.53320312 C2873.60292468 135.92808374 2875.39536217 133.3147974 2877.18652344 130.70043945 C2879.55017471 127.25281789 2881.92346474 123.81184968 2884.29638672 120.37060547 C2884.89612305 119.49984375 2885.49585937 118.62908203 2886.11376953 117.73193359 C2911.18014596 81.37496486 2911.18014596 81.37496486 2924.85498047 66.00048828 C2925.87141051 64.85115107 2926.87837823 63.69341164 2927.87841797 62.52978516 C2950.69588702 36.04522287 2977.9604158 14.15995688 3012.29638672 5.37060547 C3013.22966797 5.09474609 3014.16294922 4.81888672 3015.12451172 4.53466797 C3027.09505689 0.99950697 3039.20289137 0.01598244 3051.62768555 0.05493164 C3053.72936684 0.05809866 3055.82964253 0.03448469 3057.93115234 0.00927734 C3075.34129994 -0.07198059 3092.1139441 2.84904979 3105.23779297 15.08935547 C3110.91394608 21.37943786 3112.78924245 27.98227811 3112.60888672 36.32373047 C3112.03107868 41.9573588 3110.25242639 47.08068686 3108.29638672 52.37060547 C3107.90708984 53.43794922 3107.51779297 54.50529297 3107.11669922 55.60498047 C3100.24708935 72.92127517 3089.28026124 88.44289604 3078.29638672 103.37060547 C3077.88791504 103.92683594 3077.47944336 104.48306641 3077.05859375 105.05615234 C3070.83086307 113.50602089 3064.3830339 121.79368601 3057.96142578 130.09667969 C3057.06730696 131.25280064 3056.17366818 132.40929301 3055.28051758 133.56616211 C3054.06156569 135.14499284 3052.84113566 136.72268204 3051.62060547 138.30029297 C3049.9285534 140.53550797 3048.27612452 142.77957932 3046.65112305 145.0625 C3046.20803299 145.68448273 3045.76494293 146.30646545 3045.3084259 146.94729614 C3044.97445297 147.41698822 3044.64048004 147.8866803 3044.29638672 148.37060547 C3080.28582675 151.5134332 3116.28045592 154.54540371 3152.29638672 157.37060547 C3151.67162329 161.36826877 3150.40449005 164.57133208 3148.63623047 168.20263672 C3148.08902344 169.3325 3147.54181641 170.46236328 3146.97802734 171.62646484 C3146.11467773 173.38700195 3146.11467773 173.38700195 3145.23388672 175.18310547 C3144.68539062 176.31425781 3144.13689453 177.44541016 3143.57177734 178.61083984 C3140.60144399 184.72015816 3137.582853 190.80372611 3134.53466797 196.87451172 C3131.34672685 203.22625803 3128.22455173 209.60834594 3125.12451172 216.00341797 C3105.97219998 255.493342 3105.97219998 255.493342 3096.29638672 272.37060547 C3095.35969743 274.03308913 3094.42350974 275.69585549 3093.48779297 277.35888672 C3082.90117364 296.04545831 3071.128331 313.75330861 3056.29638672 329.37060547 C3055.7747998 329.93005859 3055.25321289 330.48951172 3054.71582031 331.06591797 C3041.18792154 345.5038684 3026.36838595 356.31205773 3008.29638672 364.37060547 C3007.60544922 364.68368652 3006.91451172 364.99676758 3006.20263672 365.31933594 C2991.70034413 371.82737303 2977.04567995 375.11352669 2961.48388672 378.05810547 C2960.35096191 378.27289551 2959.21803711 378.48768555 2958.05078125 378.70898438 C2956.94976074 378.91056152 2955.84874023 379.11213867 2954.71435547 379.31982422 C2953.74264404 379.49860107 2952.77093262 379.67737793 2951.76977539 379.86157227 C2941.91556773 381.30572936 2932.15402129 381.52014943 2922.20654297 381.50341797 C2920.77127567 381.50409383 2919.33600849 381.50506619 2917.90074158 381.50631714 C2914.90964658 381.50778134 2911.91858169 381.50568137 2908.92749023 381.50097656 C2905.12764361 381.49528528 2901.32786775 381.49856269 2897.52802372 381.50454903 C2894.56887802 381.50819384 2891.60974858 381.50699813 2888.65060234 381.50442123 C2887.25102161 381.50376249 2885.85143932 381.50454276 2884.45186043 381.50690079 C2876.01240421 381.51800314 2867.69401425 381.23085353 2859.29638672 380.37060547 C2858.9971077 380.98737152 2858.69782867 381.60413757 2858.38948059 382.23959351 C2857.16302071 384.63060562 2855.7046711 386.59862012 2854.05810547 388.72216797 C2853.4095459 389.56400635 2852.76098633 390.40584473 2852.09277344 391.27319336 C2851.39684082 392.17158936 2850.7009082 393.06998535 2849.98388672 393.99560547 C2842.56393421 403.65750419 2835.35275642 413.44095725 2828.29638672 423.37060547 C2827.53769287 424.43142334 2827.53769287 424.43142334 2826.76367188 425.51367188 C2799.26941587 463.9986631 2774.07913572 503.92823623 2751.29638672 545.37060547 C2750.84166992 546.19592773 2750.38695313 547.02125 2749.91845703 547.87158203 C2737.58597139 570.38476682 2725.98720956 594.21133757 2718.18701172 618.70263672 C2717.35386523 621.19842203 2716.39333377 623.57779074 2715.35888672 625.99560547 C2712.28791563 633.5595148 2710.33895629 641.48211025 2708.29638672 649.37060547 C2708.04566406 650.33015137 2707.79494141 651.28969727 2707.53662109 652.27832031 C2699.84779121 681.98906557 2691.27700393 720.85834201 2706.17138672 749.74560547 C2707.16884801 751.31623481 2708.20692727 752.86233372 2709.29638672 754.37060547 C2709.97314453 755.35867188 2709.97314453 755.35867188 2710.66357422 756.36669922 C2718.06312877 766.08645308 2729.69065757 769.54748327 2741.29638672 771.37060547 C2745.34723829 771.72524229 2749.24247508 771.62560119 2753.29638672 771.37060547 C2754.45525391 771.33837891 2755.61412109 771.30615234 2756.80810547 771.27294922 C2791.85839871 769.84456736 2824.7537274 749.21443403 2853.29638672 730.37060547 C2854.24502594 729.74517853 2854.24502594 729.74517853 2855.21282959 729.1071167 C2872.6888054 717.58190852 2890.13003027 706.00850964 2907.1875 693.86914062 C2909.33196801 692.34532207 2911.48303055 690.83127474 2913.63623047 689.31982422 C2921.65896679 683.68453636 2929.62728248 677.97823671 2937.56640625 672.22583008 C2942.61743817 668.57034887 2947.69613897 664.95704055 2952.79638672 661.37060547 C2960.91836191 655.65709275 2968.97132558 649.85112845 2977.01269531 644.02490234 C2980.85517783 641.24142345 2984.70048642 638.46185948 2988.54638672 635.68310547 C2989.29911865 635.13920166 2990.05185059 634.59529785 2990.82739258 634.03491211 C2995.8648208 630.39759505 3000.91545726 626.77937641 3005.97583008 623.17407227 C3011.46837474 619.25710956 3016.93004519 615.29779458 3022.39379883 611.34082031 C3028.39201785 607.00483531 3034.43903205 602.74138012 3040.50097656 598.49511719 C3045.03533517 595.30435212 3049.44475535 592.00208331 3053.72998047 588.47998047 C3055.29638672 587.37060547 3055.29638672 587.37060547 3057.29638672 587.37060547 C3058.16258149 591.29969825 3058.61733285 595.17743602 3058.97998047 599.18310547 C3059.10427011 600.52035057 3059.22862114 601.85758996 3059.35302734 603.19482422 C3059.54291586 605.26973922 3059.73155567 607.34475766 3059.91870117 609.41992188 C3060.64582863 617.43854864 3061.55113692 625.38057502 3062.8347168 633.33349609 C3063.5561611 638.07953902 3064.00357143 642.83970263 3064.42138672 647.62060547 C3064.5509375 648.99345703 3064.5509375 648.99345703 3064.68310547 650.39404297 C3064.84474263 652.19514276 3064.98760062 653.99804575 3065.10986328 655.80224609 C3065.23114565 657.47225987 3065.40249263 659.13964132 3065.63134766 660.79833984 C3065.96496548 664.30058558 3066.06356907 666.42729569 3063.78417969 669.22998047 C3061.69331 671.05637017 3059.51899862 672.70796136 3057.29638672 674.37060547 C3055.99288498 675.54466314 3054.70595632 676.73740565 3053.43701172 677.94873047 C3052.80255127 678.54645264 3052.16809082 679.1441748 3051.5144043 679.76000977 C3050.8649585 680.37400635 3050.2155127 680.98800293 3049.54638672 681.62060547 C3043.80824335 687.02297451 3038.03703263 692.38320461 3032.21826172 697.69873047 C3029.08994672 700.55938215 3025.97272722 703.43172197 3022.85888672 706.30810547 C3022.31925293 706.80648926 3021.77961914 707.30487305 3021.22363281 707.81835938 C3019.58105643 709.33560057 3017.93868506 710.85306333 3016.29638672 712.37060547 C3004.68540673 723.09956442 2993.06433743 733.81350499 2981.29638672 744.37060547 C2979.62946025 745.87031675 2977.96279523 747.37031868 2976.29638672 748.87060547 C2975.47009766 749.61310547 2974.64380859 750.35560547 2973.79248047 751.12060547 C2972.13415689 752.61543236 2970.4804623 754.11541127 2968.83154297 755.62060547 C2964.61873364 759.4540623 2960.35593703 763.16997093 2955.92138672 766.74560547 C2951.90812122 769.99013279 2948.07225546 773.35809871 2944.29638672 776.87060547 C2939.74525818 781.10009175 2935.05341574 785.09140678 2930.21435547 788.98779297 C2926.83664537 791.74603013 2923.53434073 794.58335861 2920.23388672 797.43310547 C2915.57141405 801.45023589 2910.86261035 805.38145348 2906.03076172 809.19482422 C2903.90107968 810.88944264 2901.7898347 812.60016219 2899.68701172 814.32763672 C2891.71749277 820.86913148 2883.63386144 827.19849676 2875.35498047 833.34326172 C2871.88953648 835.91742401 2868.46228291 838.53794102 2865.04345703 841.17358398 C2815.593568 879.26228705 2761.19267154 914.4749003 2702.24121094 935.66455078 C2700.24339058 936.38984534 2698.25632368 937.14039505 2696.26904297 937.89404297 C2657.57178994 952.36086218 2607.16810843 960.03105016 2568.29638672 942.37060547 C2541.69759158 929.99625151 2523.95201188 908.59444205 2513.79638672 881.44873047 C2503.39033785 851.59328074 2504.77390293 821.05057049 2510.29638672 790.37060547 C2510.48362305 789.31566895 2510.67085937 788.26073242 2510.86376953 787.17382812 C2514.9473031 764.58744426 2520.62148925 742.322557 2527.29638672 720.37060547 C2527.94765678 718.12217312 2528.59357772 715.87218382 2529.23388672 713.62060547 C2529.55357422 712.49912109 2529.87326172 711.37763672 2530.20263672 710.22216797 C2530.79422487 708.14160137 2531.38400003 706.06054046 2531.97216797 703.97900391 C2536.68484136 687.30193644 2541.7523707 670.79032951 2547.29638672 654.37060547 C2545.16757933 656.01168898 2543.04345345 657.65834137 2540.92138672 659.30810547 C2540.33744141 659.75734375 2539.75349609 660.20658203 2539.15185547 660.66943359 C2529.81636609 667.94710004 2521.36394584 676.16102342 2513.03861618 684.55321121 C2511.39986155 686.20498792 2509.75777703 687.8533934 2508.11489868 689.50106812 C2504.63086358 692.99640164 2501.15082124 696.49569305 2497.67138672 699.99560547 C2493.62591475 704.06483405 2489.57873807 708.132338 2485.52730179 712.19562912 C2483.92343977 713.80588842 2482.32266066 715.41916743 2480.72201538 717.03262329 C2475.98387618 721.79429388 2471.20032842 726.4288702 2466.09487915 730.79696655 C2463.07319916 733.44086604 2460.26980462 736.29352602 2457.45263672 739.15185547 C2456.83924438 739.76903442 2456.22585205 740.38621338 2455.59387207 741.02209473 C2453.65888614 742.96914585 2451.72721267 744.91942954 2449.79638672 746.87060547 C2435.01167619 761.8111398 2435.01167619 761.8111398 2428.88037109 767.00927734 C2426.55738991 769.00572356 2424.43210097 771.17716921 2422.29638672 773.37060547 C2418.81173143 776.94944063 2415.17264197 780.25055636 2411.40185547 783.51904297 C2407.95367687 786.55139298 2404.62965464 789.71311535 2401.29638672 792.87060547 C2396.06389958 797.82716067 2390.7549661 802.66373132 2385.29638672 807.37060547 C2384.44705566 808.1031958 2384.44705566 808.1031958 2383.58056641 808.85058594 C2381.94652313 810.25586316 2380.3096294 811.65772674 2378.67138672 813.05810547 C2375.03009102 816.17084188 2371.39049954 819.28496002 2367.77294922 822.42529297 C2361.52870082 827.83510503 2355.20641071 833.09602593 2348.67822266 838.16040039 C2344.91370981 841.08378316 2341.21202737 844.07109104 2337.53686523 847.10595703 C2315.13297996 865.56106478 2290.65294286 882.14237189 2265.28369141 896.24609375 C2263.45309502 897.28193244 2261.65703665 898.35688143 2259.86669922 899.46044922 C2249.73657188 905.59439922 2238.92930496 909.9174587 2227.95410156 914.30322266 C2225.81506169 915.16229691 2223.6879119 916.04097334 2221.56591797 916.94091797 C2193.09737937 928.65242544 2158.8633242 932.26782883 2129.72607422 920.92919922 C2103.55405017 909.03553453 2086.06417968 887.26148688 2075.83154297 860.72216797 C2055.60824854 805.29719796 2074.73482088 743.37224882 2098.29638672 692.37060547 C2101.00929046 686.75196157 2103.94615383 681.26687632 2106.96289062 675.80664062 C2108.41821251 673.1480537 2109.83368336 670.47045019 2111.24560547 667.78857422 C2124.36577057 642.98851198 2139.56972284 619.56956593 2155.29638672 596.37060547 C2155.91175293 595.46133301 2156.52711914 594.55206055 2157.16113281 593.61523438 C2167.33740343 578.59774217 2177.79781145 563.79040272 2188.44091797 549.10083008 C2192.59233674 543.36476325 2196.6875592 537.5911915 2200.75268555 531.79370117 C2203.4313134 527.98203021 2206.14393391 524.19962027 2208.90185547 520.44482422 C2209.49933594 519.62884766 2210.09681641 518.81287109 2210.71240234 517.97216797 C2211.86855162 516.3966437 2213.02979098 514.8248384 2214.19677734 513.25732422 C2214.71820312 512.54576172 2215.23962891 511.83419922 2215.77685547 511.10107422 C2216.23987061 510.47612061 2216.70288574 509.85116699 2217.17993164 509.20727539 C2218.3600651 507.26584876 2218.86605006 505.59038194 2219.29638672 503.37060547 C2214.82500309 503.37060547 2214.18165175 503.84986968 2210.80419922 506.48388672 C2209.94149414 507.1492041 2209.07878906 507.81452148 2208.18994141 508.5 C2207.27631836 509.2204248 2206.36269531 509.94084961 2205.42138672 510.68310547 C2204.47682617 511.4164209 2203.53226563 512.14973633 2202.55908203 512.90527344 C2199.79816184 515.05197596 2197.04701033 517.21073725 2194.29638672 519.37060547 C2192.99780483 520.37827327 2191.69845196 521.38494921 2190.39794922 522.39013672 C2177.27926371 532.56323905 2164.53776522 543.22449353 2151.90869141 553.99658203 C2150.20967083 555.44450569 2148.50694992 556.88800859 2146.80419922 558.33154297 C2140.06011822 564.06405796 2133.45412374 569.91519434 2126.95654297 575.92529297 C2124.78417426 577.9222134 2122.59099509 579.87889281 2120.35888672 581.80810547 C2114.54645283 586.85825294 2108.93353234 592.12704814 2103.29638672 597.37060547 C2102.68389069 597.93953522 2102.07139465 598.50846497 2101.44033813 599.09463501 C2090.61060121 609.16881298 2080.03502487 619.47398723 2069.59033203 629.94628906 C2067.14194456 632.40011301 2064.6881514 634.84844245 2062.23388672 637.29638672 C2060.64762795 638.88330523 2059.06167885 640.47053336 2057.47607422 642.05810547 C2056.75620331 642.77595215 2056.0363324 643.49379883 2055.29464722 644.23339844 C2051.28701371 648.25946394 2047.45382001 652.38208743 2043.75369263 656.69311523 C2042.02397049 658.68418107 2040.19337393 660.53903161 2038.29638672 662.37060547 C2035.15060336 665.47436501 2032.22344656 668.68936845 2029.34326172 672.03857422 C2026.7147129 675.033314 2024.00691647 677.95016376 2021.29638672 680.87060547 C2016.88124162 685.63680186 2012.52716156 690.43908117 2008.29638672 695.37060547 C2007.87953613 695.85577637 2007.46268555 696.34094727 2007.03320312 696.84082031 C2004.50695288 699.78152663 2001.98421226 702.72520035 1999.46435547 705.67138672 C1997.43067277 708.048475 1995.39188452 710.42097168 1993.34716797 712.78857422 C1986.11615488 721.17074525 1979.04265809 729.67448256 1972.03564453 738.24462891 C1970.35229342 740.30226808 1968.66443932 742.3561425 1966.97607422 744.40966797 C1960.89074636 751.83258102 1954.97430409 759.35983239 1949.17553711 767.00854492 C1944.90746124 772.61983394 1940.50104696 778.10483214 1936.03295898 783.55761719 C1932.5390578 787.82506609 1929.11705729 792.14005584 1925.73388672 796.49560547 C1920.62924283 803.04417402 1915.26032313 809.33960264 1909.81689453 815.60742188 C1908.28330243 817.38577803 1906.76804694 819.17826561 1905.25732422 820.97607422 C1899.66221715 827.6168272 1893.90212898 833.90703685 1887.69091797 839.97607422 C1885.70775102 841.95924117 1883.888128 843.9577003 1882.10888672 846.12060547 C1879.54747999 849.19574067 1876.71235557 851.73073727 1873.65966797 854.31201172 C1871.37496355 856.3021592 1869.19519065 858.37992976 1867.01220703 860.48022461 C1849.42394042 877.23442517 1827.07774021 893.53572437 1801.92138672 893.55810547 C1801.20466797 893.57035156 1800.48794922 893.58259766 1799.74951172 893.59521484 C1794.59774798 893.60916366 1790.25159046 892.7914343 1785.29638672 891.37060547 C1784.28833984 891.08701172 1783.28029297 890.80341797 1782.24169922 890.51123047 C1756.0621961 882.24401896 1740.61920722 860.79499897 1728.33300781 837.57006836 C1725.75861939 832.54696942 1723.72489634 827.51324972 1722.14794922 822.08154297 C1721.31312983 819.24666859 1721.31312983 819.24666859 1719.87841797 816.16748047 C1717.90612177 811.65954944 1716.6388401 806.98866529 1715.35888672 802.24560547 C1714.96975098 800.80894531 1714.96975098 800.80894531 1714.57275391 799.34326172 C1707.48691623 772.54527338 1704.67189741 744.98941225 1703.29638672 717.37060547 C1702.02408203 718.73378906 1702.02408203 718.73378906 1700.72607422 720.12451172 C1693.72607422 727.62451172 1693.72607422 727.62451172 1691.69824219 729.79296875 C1689.88440056 731.73955748 1688.07705906 733.69144625 1686.2734375 735.64746094 C1677.90313923 744.7019541 1669.31227728 753.51091946 1660.58056641 762.21679688 C1658.39871764 764.39321815 1656.22235758 766.57502786 1654.04638672 768.75732422 C1652.6326452 770.17040583 1651.21859398 771.5831777 1649.80419922 772.99560547 C1648.84926071 773.95358032 1648.84926071 773.95358032 1647.87503052 774.9309082 C1644.08593273 778.70058172 1640.18587904 782.2819709 1636.12423706 785.75683594 C1634.26978623 787.39409046 1632.52787451 789.10452632 1630.79638672 790.87060547 C1627.80766335 793.90655471 1624.67932193 796.71569206 1621.45263672 799.49560547 C1619.09675714 801.5441964 1616.79131212 803.64263548 1614.48388672 805.74560547 C1610.16864096 809.63985164 1605.72546917 813.33715271 1601.20654297 816.99169922 C1598.62723477 819.10015384 1596.08678996 821.24391637 1593.55615234 823.40991211 C1587.20050856 828.84580995 1580.69792388 834.03298664 1574.01953125 839.06835938 C1572.25059984 840.40520836 1570.49006798 841.75260858 1568.72998047 843.10107422 C1551.74537686 856.05153002 1534.27393997 868.24604231 1515.7734375 878.93505859 C1513.25941125 880.39203419 1510.75999827 881.87201505 1508.26123047 883.35498047 C1467.7092238 907.22456662 1422.35894836 925.57496067 1374.73388672 925.68310547 C1373.59395264 925.68842285 1372.45401855 925.69374023 1371.27954102 925.69921875 C1344.52260855 925.47771775 1319.10050248 916.0981984 1298.29638672 899.37060547 C1297.70486816 898.89719727 1297.11334961 898.42378906 1296.50390625 897.93603516 C1273.96400035 879.69947578 1258.54530358 856.38057304 1246.29638672 830.37060547 C1245.98958984 829.71979004 1245.68279297 829.06897461 1245.36669922 828.3984375 C1225.7710287 786.34939451 1221.65677682 742.11529428 1221.29638672 696.37060547 C1220.50119629 697.03737305 1219.70600586 697.70414063 1218.88671875 698.39111328 C1217.8175934 699.2853762 1216.74841751 700.17957868 1215.67919922 701.07373047 C1215.15817627 701.51088379 1214.63715332 701.94803711 1214.1003418 702.3984375 C1209.46568918 706.27078818 1204.70747954 709.96390143 1199.89794922 713.61669922 C1195.75653761 716.77443847 1191.6530135 719.98034842 1187.54638672 723.18310547 C1179.59453656 729.37633317 1171.60267198 735.51509605 1163.5859375 741.62402344 C1161.13169041 743.49624392 1158.68071596 745.37269729 1156.22998047 747.24951172 C1145.44972547 755.49670134 1134.59326681 763.62780198 1123.64355469 771.6484375 C1121.26516761 773.3935116 1118.89139538 775.14468163 1116.51904297 776.89794922 C1100.92210685 788.42425203 1085.22273225 799.78628216 1069.30810547 810.87060547 C1066.1320771 813.08340712 1062.96769424 815.31090915 1059.81591797 817.55810547 C1030.88941268 838.11911662 1000.8752184 857.36641191 970.29638672 875.37060547 C969.47477051 875.8549707 968.6531543 876.33933594 967.80664062 876.83837891 C951.46028635 886.43276916 934.68117525 895.20155267 917.72216797 903.65966797 C915.39640629 904.82122283 913.08795951 906.01797719 910.79638672 907.24560547 C904.82566295 910.23685564 898.4724091 912.39049895 892.20605469 914.67431641 C890.54807016 915.27883851 888.89268964 915.89049328 887.23779297 916.50341797 C884.59674311 917.47704158 881.94798665 918.42614588 879.29638672 919.37060547 C878.37986328 919.70962891 877.46333984 920.04865234 876.51904297 920.39794922 C853.05291782 928.74496018 826.67432036 930.29095034 803.80029297 919.76123047 C778.50508635 907.01127661 761.59257757 883.57642619 752.55029297 857.22607422 C752.12900159 855.94200333 751.71081352 854.65690827 751.29638672 853.37060547 C750.95478516 852.33548828 750.61318359 851.30037109 750.26123047 850.23388672 C736.33732554 798.61829495 764.10169859 737.40118031 787.17724609 692.57373047 C788.47568521 690.01764091 789.73845308 687.44533994 790.99951172 684.87060547 C797.94093952 670.73571268 805.39001051 656.98690624 813.29638672 643.37060547 C813.94768555 642.24493164 814.59898438 641.11925781 815.27001953 639.95947266 C825.32852944 622.58536934 835.68101593 605.41127993 846.29638672 588.37060547 C847.24360596 586.84959229 847.24360596 586.84959229 848.20996094 585.29785156 C853.95026314 576.08763208 859.70589204 566.88723366 865.49951172 557.71044922 C866.187146 556.61812988 866.87478027 555.52581055 867.58325195 554.40039062 C868.90224659 552.30545133 870.22451118 550.21256612 871.55053711 548.12207031 C872.14342529 547.17928223 872.73631348 546.23649414 873.34716797 545.26513672 C873.86964111 544.43860596 874.39211426 543.6120752 874.93041992 542.76049805 C876.30405041 540.3571971 877.33286645 537.96239137 878.29638672 535.37060547 C873.2477423 535.37060547 871.6913387 537.35298325 868.29638672 540.68310547 C867.13135985 541.79283512 865.96598779 542.90220248 864.80029297 544.01123047 C863.92074951 544.85717773 863.92074951 544.85717773 863.0234375 545.72021484 C860.46428698 548.16577005 857.8507793 550.54970157 855.23388672 552.93310547 C854.24146284 553.84170152 853.24927531 554.75055578 852.25732422 555.65966797 C850.7772357 557.01487097 849.29706516 558.36998434 847.81689453 559.72509766 C842.13316326 564.92925239 836.45679487 570.14108179 830.79638672 575.37060547 C825.13749704 580.59872626 819.4625584 585.80904636 813.78027344 591.01171875 C811.28474265 593.29703042 808.79064145 595.58390127 806.29638672 597.87060547 C805.29639347 598.7872795 804.29639348 599.70394617 803.29638672 600.62060547 C802.80138672 601.07435547 802.30638672 601.52810547 801.79638672 601.99560547 C797.29638671 606.12060548 797.29638671 606.12060548 795.79663086 607.49536133 C794.79579004 608.41281232 793.79497627 609.33029283 792.79418945 610.24780273 C790.30727411 612.52771098 787.81990357 614.80711839 785.33154297 617.08544922 C780.14341625 621.83668105 774.96365111 626.59668621 769.79638672 631.37060547 C764.13749704 636.59872626 758.4625584 641.80904636 752.78027344 647.01171875 C750.28474266 649.29703041 747.79062464 651.58388296 745.29638672 653.87060547 C742.30879262 656.60963795 739.32093375 659.3483776 736.33154297 662.08544922 C731.14341625 666.83668105 725.96365111 671.59668621 720.79638672 676.37060547 C715.13749704 681.59872626 709.4625584 686.80904636 703.78027344 692.01171875 C701.28474266 694.29703041 698.79062464 696.58388296 696.29638672 698.87060547 C693.30879262 701.60963795 690.32093375 704.3483776 687.33154297 707.08544922 C682.14341625 711.83668105 676.96365111 716.59668621 671.79638672 721.37060547 C666.13749704 726.59872626 660.4625584 731.80904636 654.78027344 737.01171875 C652.28474265 739.29703042 649.79064145 741.58390127 647.29638672 743.87060547 C646.29639347 744.7872795 645.29639348 745.70394617 644.29638672 746.62060547 C643.80138672 747.07435547 643.30638672 747.52810547 642.79638672 747.99560547 C638.29638672 752.12060547 638.29638672 752.12060547 636.79663086 753.49536133 C635.79579004 754.41281232 634.79497627 755.33029283 633.79418945 756.24780273 C631.30727411 758.52771098 628.81990357 760.80711839 626.33154297 763.08544922 C620.58737133 768.34590114 614.85172903 773.61532747 609.13671875 778.9074707 C606.60944291 781.24578085 604.07359562 783.57058626 601.51123047 785.87060547 C593.90361771 792.71852694 586.6858708 799.91392119 579.5012207 807.20263672 C575.86561972 810.87596259 572.23645593 814.48948418 568.31201172 817.85498047 C563.37348587 822.09188484 558.86011518 826.73772961 554.29638672 831.37060547 C548.47637888 837.27879524 542.60400404 842.98585204 536.29638672 848.37060547 C535.13950535 849.39185691 533.98451243 850.41525212 532.83154297 851.44091797 C510.21429648 871.40244944 484.58375938 891.52435122 455.29638672 900.37060547 C454.4265918 900.6384082 453.55679688 900.90621094 452.66064453 901.18212891 C444.6439886 903.43639655 437.09385589 903.82396562 428.79638672 903.74560547 C426.95367188 903.76300781 426.95367188 903.76300781 425.07373047 903.78076172 C413.87538895 903.74513603 403.97322896 901.799103 394.04638672 896.55810547 C393.36382813 896.20627197 392.68126953 895.85443848 391.97802734 895.49194336 C387.02713838 892.88562011 382.54823054 890.0219611 378.29638672 886.37060547 C377.65830078 885.87431641 377.02021484 885.37802734 376.36279297 884.86669922 C361.81900591 873.10125745 352.26477328 853.87729873 350.29638672 835.37060547 C348.7403107 812.59219713 353.94687997 790.4944163 362.29638672 769.37060547 C362.76407471 768.17552368 362.76407471 768.17552368 363.24121094 766.95629883 C374.72495336 738.02825562 388.96372214 709.92618444 404.70703125 683.09179688 C406.43264919 680.13730569 408.12999419 677.16770099 409.82373047 674.19482422 C423.70334439 649.87840201 438.38044428 626.06265221 453.29638672 602.37060547 C453.80975586 601.55366211 454.323125 600.73671875 454.85205078 599.89501953 C470.22634353 575.43177689 485.75688673 551.05008545 501.85888672 527.05810547 C512.98253945 511.98958113 512.98253945 511.98958113 516.29638672 494.37060547 C514.7191437 490.38994452 513.88637761 488.76393273 510.29638672 486.37060547 C499.6547819 484.78261405 491.66371985 490.55083655 483.29638672 496.37060547 C469.87950344 506.54363571 457.96768805 518.53315273 446.10375977 530.43286133 C443.97314038 532.56887904 441.83717449 534.69944665 439.70068359 536.82958984 C438.31950322 538.21143053 436.93863283 539.59358114 435.55810547 540.97607422 C434.93191818 541.60023727 434.3057309 542.22440033 433.66056824 542.86747742 C429.89091347 546.65689025 426.31173033 550.5633499 422.82868958 554.61811829 C420.75997773 556.98409377 418.5474445 559.17878605 416.29638672 561.37060547 C412.68919545 564.9342053 409.30160783 568.58985403 406.00732422 572.44091797 C403.55065553 575.21168129 400.90278695 577.77353447 398.26513672 580.37060547 C396.35652217 582.30951549 394.5692812 584.30760098 392.79638672 586.37060547 C389.77876318 589.88202195 386.56279591 593.12367949 383.26513672 596.37060547 C381.35652217 598.30951549 379.5692812 600.30760098 377.79638672 602.37060547 C374.85059877 605.79843144 371.73463325 608.98195364 368.48388672 612.12060547 C366.59106508 614.06750773 364.80948914 616.05507495 363.03076172 618.10498047 C359.31305547 622.38489575 355.44863402 626.50927527 351.54638672 630.62060547 C345.96048374 636.53040342 340.41860978 642.47319936 334.93701172 648.47998047 C332.06798322 651.62063297 329.18386241 654.7469279 326.29638672 657.87060547 C321.07089952 663.5262984 315.86376934 669.19853818 310.6640625 674.87792969 C309.2705952 676.39875423 307.87550921 677.91807871 306.47998047 679.43701172 C300.7142241 685.71448021 294.98821151 692.02595489 289.29638672 698.37060547 C287.79667544 700.03753194 286.29667351 701.70419696 284.79638672 703.37060547 C284.05646484 704.19302734 283.31654297 705.01544922 282.55419922 705.86279297 C281.02930427 707.55653441 279.5032327 709.24921716 277.97607422 710.94091797 C273.98394946 715.36608677 270.0231278 719.81397682 266.10888672 724.30810547 C264.02427507 726.68024975 261.91210028 729.02616612 259.79638672 731.37060547 C254.96411395 736.73077358 250.19819816 742.1407012 245.51123047 747.62841797 C244.48131193 748.83417223 243.45136319 750.0399007 242.42138672 751.24560547 C241.9017334 751.85412354 241.38208008 752.4626416 240.84667969 753.08959961 C237.81746139 756.62684405 234.74490089 760.11453124 231.60888672 763.55810547 C227.75787667 767.7976859 224.14794716 772.19992658 220.54638672 776.65185547 C218.36137103 779.29208276 216.10467281 781.83790267 213.79638672 784.37060547 C209.97467809 788.5678958 206.38164482 792.90770777 202.81201172 797.31982422 C199.86713311 800.89117545 196.83909247 804.3826364 193.79638672 807.87060547 C188.50624343 813.94099913 183.35872029 820.10831135 178.29638672 826.37060547 C176.0487324 829.12123139 173.7976681 831.86904156 171.54638672 834.61669922 C170.04127718 836.45889058 168.5413004 838.30528697 167.04638672 840.15576172 C162.64705241 845.58619001 158.12913319 850.86141143 153.42138672 856.02685547 C151.47143947 858.17753258 149.56612543 860.35885518 147.67138672 862.55810547 C133.75515837 878.39925429 114.40584112 894.84020941 92.56494141 896.58935547 C69.81145085 897.77636508 51.60488201 892.92077743 34.29638672 877.37060547 C16.01578588 860.77582373 4.79499111 839.62754098 -3.7980957 816.7355957 C-4.72878866 814.30485356 -5.72025989 811.90452784 -6.71533203 809.49951172 C-8.90545767 804.03689401 -10.56777783 798.47536545 -12.14111328 792.80810547 C-12.44041748 791.73544434 -12.73972168 790.6627832 -13.0480957 789.55761719 C-15.96094513 778.85770357 -18.19311677 768.04458586 -20.19091797 757.14038086 C-20.51411582 755.39434295 -20.85139095 753.65079673 -21.20849609 751.91137695 C-23.09763038 742.42596346 -23.88274815 732.79765902 -24.82861328 723.18310547 C-25.01180296 721.35428891 -25.19539348 719.52551245 -25.37939453 717.69677734 C-25.82542346 713.25516893 -26.26602471 708.81305304 -26.70361328 704.37060547 C-32.11415612 709.0422873 -37.38621804 713.83332964 -42.57861328 718.74560547 C-47.75698796 723.62288407 -52.96570438 728.45462615 -58.27392578 733.19091797 C-61.14754567 735.76885992 -63.98819271 738.38121775 -66.82861328 740.99560547 C-70.74670024 744.59797626 -74.69959038 748.15191553 -78.72314453 751.63623047 C-81.01494483 753.64325085 -83.2635808 755.69463398 -85.51611328 757.74560547 C-88.95739533 760.85589398 -92.46682626 763.83538859 -96.07861328 766.74560547 C-100.09187878 769.99013279 -103.92774454 773.35809871 -107.70361328 776.87060547 C-112.25955801 781.10456757 -116.95632487 785.09992211 -121.80126953 788.99951172 C-125.0932393 791.68891367 -128.30375337 794.46221016 -131.51611328 797.24560547 C-136.64847126 801.67844621 -141.88746176 805.9320821 -147.24633789 810.0871582 C-151.93651017 813.73463768 -156.51191159 817.50769839 -161.07861328 821.30810547 C-168.45070488 827.42325046 -176.01799703 833.21723927 -183.72412109 838.90283203 C-185.71333432 840.37781352 -187.69058392 841.86748145 -189.66455078 843.36279297 C-233.86250492 876.8337224 -283.277976 911.37333188 -335.69189453 930.27294922 C-338.24704483 931.20420374 -340.75562681 932.19733461 -343.27392578 933.22216797 C-361.96107794 940.72101123 -380.85910693 946.05460978 -400.70361328 949.37060547 C-402.03440965 949.61763953 -403.36514784 949.86498749 -404.69580078 950.11279297 C-414.00324779 951.59954052 -423.36472883 951.57466093 -432.76611328 951.62060547 C-433.4413504 951.62605377 -434.11658752 951.63150208 -434.81228638 951.63711548 C-447.63406028 951.7140582 -460.51701536 951.0606307 -472.70361328 946.74560547 C-473.826427 946.35646973 -473.826427 946.35646973 -474.97192383 945.95947266 C-500.44775383 936.77792418 -521.37847742 918.49185808 -533.01611328 893.93310547 C-554.65310788 846.53142703 -546.64172611 789.95153391 -532.31103516 741.46826172 C-531.70935255 739.39042533 -531.1456159 737.30605848 -530.59423828 735.21435547 C-528.11734736 725.86688735 -525.24295455 716.67564386 -522.20361328 707.49560547 C-521.8359082 706.37871338 -521.46820312 705.26182129 -521.08935547 704.11108398 C-518.9159377 697.62686214 -516.4977469 691.31172043 -513.81982422 685.01953125 C-512.46051453 681.79369788 -511.26319775 678.53951454 -510.07861328 675.24560547 C-496.90926285 639.53512402 -480.17116149 604.50696367 -462.1171875 571.00195312 C-460.45926472 567.91575421 -458.81780086 564.82102201 -457.17626953 561.72607422 C-449.59999133 547.46143567 -441.82509219 533.33380492 -433.70361328 519.37060547 C-433.14818848 518.41202637 -432.59276367 517.45344727 -432.02050781 516.46582031 C-415.62492564 488.17029258 -398.6644944 460.22475656 -381.13037109 432.61962891 C-378.68865607 428.77071056 -376.25993425 424.91359439 -373.82861328 421.05810547 C-370.61744355 415.96699387 -367.39540651 410.88319132 -364.15283203 405.81201172 C-363.54745605 404.86430908 -362.94208008 403.91660645 -362.31835938 402.94018555 C-361.16814256 401.14069299 -360.01629112 399.3422435 -358.86230469 397.54516602 C-353.98571937 389.91360778 -349.33759245 382.15082292 -344.70361328 374.37060547 C-345.34904083 374.360298 -345.99446838 374.34999054 -346.65945435 374.33937073 C-353.44167178 374.23029726 -360.22378289 374.11579575 -367.00585938 373.99829102 C-369.52927401 373.95526178 -372.05271181 373.91356774 -374.57617188 373.87329102 C-398.69261378 373.48677899 -398.69261378 373.48677899 -409.47705078 372.58666992 C-415.60802359 372.17611371 -421.74670118 372.18463512 -427.8894043 372.18530273 C-430.13560822 372.18311084 -432.3813232 372.16484635 -434.62744141 372.14599609 C-444.15655734 372.1082919 -453.26614584 372.95660817 -462.70361328 374.37060547 C-465.44350364 374.72381486 -468.18648709 375.04840046 -470.93017578 375.37060547 C-472.32602169 375.53716678 -473.721855 375.70383369 -475.11767578 375.87060547 C-477.22759954 376.12148354 -479.33760054 376.37166572 -481.44775391 376.62060547 C-483.54630215 376.86863333 -485.64455991 377.11894741 -487.74267578 377.37060547 C-488.41606995 377.45093018 -489.08946411 377.53125488 -489.78326416 377.61401367 C-495.26506326 378.28275749 -500.70343761 379.14933161 -506.14257812 380.10107422 C-508.70361328 380.37060547 -508.70361328 380.37060547 -511.70361328 379.37060547 C-502.16510451 363.38323532 -492.50352243 347.47974195 -482.71972656 331.64111328 C-480.70647298 328.37524443 -478.70177622 325.10427829 -476.69970703 321.83154297 C-454.15749166 285.00561502 -431.4094979 247.93878561 -401.70361328 216.37060547 C-400.77935547 215.38253906 -400.77935547 215.38253906 -399.83642578 214.37451172 C-372.3236569 185.87444252 -333.32787033 170.19273187 -294.65673828 164.91748047 C-291.56259318 164.48943668 -288.56372859 163.9741406 -285.51611328 163.30810547 C-274.55619493 161.02874637 -263.38697686 160.17130001 -252.22705078 159.61669922 C-248.86045207 159.45321461 -248.86045207 159.45321461 -246.21728516 158.88867188 C-241.14560853 158.14088854 -236.08081506 158.01758001 -230.96142578 157.83544922 C-229.83791718 157.79247208 -228.71440857 157.74949493 -227.55685425 157.70521545 C-223.98089887 157.56925023 -220.40477183 157.43860642 -216.82861328 157.30810547 C-214.39891253 157.2166599 -211.96922483 157.12486699 -209.53955078 157.03271484 C-203.59438358 156.80798637 -197.6490667 156.58762251 -191.70361328 156.37060547 C-191.25469475 155.45064537 -191.25469475 155.45064537 -190.79670715 154.51210022 C-189.53975369 152.04958597 -188.05449739 149.87942399 -186.46533203 147.61669922 C-185.81661133 146.68937988 -185.16789062 145.76206055 -184.49951172 144.80664062 C-183.80374023 143.81712402 -183.10796875 142.82760742 -182.39111328 141.80810547 C-180.93084651 139.72130754 -179.47121989 137.63406152 -178.01220703 135.54638672 C-177.28372559 134.50434082 -176.55524414 133.46229492 -175.8046875 132.38867188 C-172.82609461 128.11010282 -169.88787985 123.8046336 -166.95361328 119.49560547 C-152.6107171 98.49944205 -137.93190171 77.8334209 -120.97998047 58.83813477 C-119.80337022 57.48530305 -118.6876685 56.0801315 -117.57861328 54.67138672 C-115.82716134 52.52220923 -114.07837236 50.8272747 -111.95361328 49.05810547 C-109.15288052 46.6736284 -106.5540093 44.21940869 -104.01611328 41.55810547 C-76.86662469 14.25107632 -38.05823939 -0.00856975 0 0 Z " fill="#FEFEFE" transform="translate(704.70361328125,1523.62939453125)"/>
<path d="M0 0 C0.99128906 0.35191406 1.98257813 0.70382812 3.00390625 1.06640625 C9.97302375 3.70926307 15.46219587 7.03150284 21 12 C21.69996094 12.61875 22.39992188 13.2375 23.12109375 13.875 C32.96949697 23.10904159 38.61203183 34.72321718 39.3828125 48.20703125 C40.79878484 93.19791252 18.56556318 134.72150567 -11.19140625 167.04296875 C-12.12453139 168.03155527 -13.0609087 169.01707916 -14 170 C-14.53423584 170.55977539 -15.06847168 171.11955078 -15.61889648 171.69628906 C-29.70717645 186.141512 -47.17794556 196.91219707 -66 204 C-66.93457031 204.36867188 -67.86914062 204.73734375 -68.83203125 205.1171875 C-79.92669004 209.36884695 -90.32525144 210.44300057 -102.1875 210.4375 C-103.22071884 210.43860275 -103.22071884 210.43860275 -104.27481079 210.43972778 C-114.67695035 210.41051807 -123.5812639 209.82572435 -133 205 C-134.04285156 204.49210937 -135.08570312 203.98421875 -136.16015625 203.4609375 C-147.46877525 197.42776782 -156.35616481 188.91725682 -163 178 C-163.53367187 177.13632813 -164.06734375 176.27265625 -164.6171875 175.3828125 C-171.80995318 163.03702066 -174.19918185 150.61423034 -174.24023438 136.51953125 C-174.24983689 134.53373128 -174.28098297 132.54807307 -174.3125 130.5625 C-174.44133071 98.35482223 -156.69571537 70.86319594 -134.703125 48.68359375 C-133.81109375 47.79800781 -132.9190625 46.91242188 -132 46 C-131.4117041 45.38890381 -130.8234082 44.77780762 -130.21728516 44.14819336 C-125.50684704 39.30441898 -120.57971739 35.10634955 -115.125 31.125 C-114.30418945 30.52421631 -113.48337891 29.92343262 -112.63769531 29.30444336 C-104.47543771 23.44514191 -95.94247592 18.55544206 -87 14 C-86.37738281 13.67451172 -85.75476562 13.34902344 -85.11328125 13.01367188 C-61.36003905 0.67332153 -26.2463636 -10.32439895 0 0 Z " fill="#FEFEFE" transform="translate(2454,1564)"/>
</svg>
